# Blender v3.0.0 OBJ File: 'SHIPMENTCOLLISION.blend'
# www.blender.org
mtllib COLLISIONMAP2.mtl
o Cube_Cube.003
v -43.270603 -3.326968 59.434566
v -43.270603 -2.754852 59.434566
v -43.270603 -3.326968 -34.680767
v -43.270603 -2.754852 -34.680767
v 50.352737 -3.326968 59.434566
v 50.352737 -2.754852 59.434566
v 50.352737 -3.326968 -34.680767
v 50.352737 -2.754852 -34.680767
vt 0.375000 0.000000
vt 0.625000 0.000000
vt 0.625000 0.250000
vt 0.375000 0.250000
vt 0.625000 0.500000
vt 0.375000 0.500000
vt 0.625000 0.750000
vt 0.375000 0.750000
vt 0.625000 1.000000
vt 0.375000 1.000000
vt 0.125000 0.500000
vt 0.125000 0.750000
vt 0.875000 0.500000
vt 0.875000 0.750000
vn -1.0000 0.0000 0.0000
vn 0.0000 0.0000 -1.0000
vn 1.0000 0.0000 0.0000
vn 0.0000 0.0000 1.0000
vn 0.0000 -1.0000 0.0000
vn 0.0000 1.0000 0.0000
usemtl None
s off
f 1/1/1 2/2/1 4/3/1 3/4/1
f 3/4/2 4/3/2 8/5/2 7/6/2
f 7/6/3 8/5/3 6/7/3 5/8/3
f 5/8/4 6/7/4 2/9/4 1/10/4
f 3/11/5 7/6/5 5/8/5 1/12/5
f 8/5/6 4/13/6 2/14/6 6/7/6
o Cube.002_Cube.005
v -29.794020 -2.758436 53.450981
v -29.794020 0.485763 53.450981
v -33.685265 -2.769233 51.084412
v -33.685265 0.474966 51.084412
v -28.396811 -2.758436 51.195259
v -28.396811 -0.030952 51.195259
v -32.255165 -2.769233 48.849388
v -32.255165 -0.041750 48.849388
vt 0.375000 0.000000
vt 0.625000 0.000000
vt 0.625000 0.250000
vt 0.375000 0.250000
vt 0.625000 0.500000
vt 0.375000 0.500000
vt 0.625000 0.750000
vt 0.375000 0.750000
vt 0.625000 1.000000
vt 0.375000 1.000000
vt 0.125000 0.500000
vt 0.125000 0.750000
vt 0.875000 0.500000
vt 0.875000 0.750000
vn -0.5196 0.0000 0.8544
vn -0.8423 0.0000 -0.5390
vn 0.5195 0.0000 -0.8545
vn 0.8501 0.0000 0.5266
vn 0.0020 -1.0000 0.0013
vn 0.0973 0.9815 -0.1646
usemtl None
s off
f 9/15/7 10/16/7 12/17/7 11/18/7
f 11/18/8 12/17/8 16/19/8 15/20/8
f 15/20/9 16/19/9 14/21/9 13/22/9
f 13/22/10 14/21/10 10/23/10 9/24/10
f 11/25/11 15/20/11 13/22/11 9/26/11
f 16/19/12 12/27/12 10/28/12 14/21/12
o Cube.003_Cube.006
v -4.601112 -3.917358 51.630424
v -4.601112 3.996431 51.630424
v -4.601112 -3.917358 51.180031
v -4.601112 3.996431 51.180031
v 10.417819 -3.917358 51.630424
v 10.417819 3.996431 51.630424
v 10.417819 -3.917358 51.180031
v 10.417819 3.996431 51.180031
vt 0.375000 0.000000
vt 0.625000 0.000000
vt 0.625000 0.250000
vt 0.375000 0.250000
vt 0.625000 0.500000
vt 0.375000 0.500000
vt 0.625000 0.750000
vt 0.375000 0.750000
vt 0.625000 1.000000
vt 0.375000 1.000000
vt 0.125000 0.500000
vt 0.125000 0.750000
vt 0.875000 0.500000
vt 0.875000 0.750000
vn -1.0000 0.0000 0.0000
vn 0.0000 0.0000 -1.0000
vn 1.0000 0.0000 0.0000
vn 0.0000 0.0000 1.0000
vn 0.0000 -1.0000 0.0000
vn 0.0000 1.0000 0.0000
usemtl None
s off
f 17/29/13 18/30/13 20/31/13 19/32/13
f 19/32/14 20/31/14 24/33/14 23/34/14
f 23/34/15 24/33/15 22/35/15 21/36/15
f 21/36/16 22/35/16 18/37/16 17/38/16
f 19/39/17 23/34/17 21/36/17 17/40/17
f 24/33/18 20/41/18 18/42/18 22/35/18
o Cube.004_Cube.007
v 9.240887 -3.340921 0.482351
v 9.240887 11.502821 0.482351
v 24.624386 -3.340921 0.482351
v 24.624386 11.502821 0.482351
v 9.240887 -3.340921 7.239361
v 9.240887 11.502821 7.239361
v 24.624386 -3.340921 7.239361
v 24.624386 11.502821 7.239361
vt 0.375000 0.000000
vt 0.625000 0.000000
vt 0.625000 0.250000
vt 0.375000 0.250000
vt 0.625000 0.500000
vt 0.375000 0.500000
vt 0.625000 0.750000
vt 0.375000 0.750000
vt 0.625000 1.000000
vt 0.375000 1.000000
vt 0.125000 0.500000
vt 0.125000 0.750000
vt 0.875000 0.500000
vt 0.875000 0.750000
vn 0.0000 0.0000 -1.0000
vn 1.0000 0.0000 0.0000
vn 0.0000 0.0000 1.0000
vn -1.0000 0.0000 0.0000
vn 0.0000 -1.0000 0.0000
vn 0.0000 1.0000 0.0000
usemtl None
s off
f 25/43/19 26/44/19 28/45/19 27/46/19
f 27/46/20 28/45/20 32/47/20 31/48/20
f 31/48/21 32/47/21 30/49/21 29/50/21
f 29/50/22 30/49/22 26/51/22 25/52/22
f 27/53/23 31/48/23 29/50/23 25/54/23
f 32/47/24 28/55/24 26/56/24 30/49/24
o Cube.005_Cube.008
v 9.240887 -4.270347 20.082657
v 9.240887 10.573394 20.082657
v 24.624384 -4.270347 20.082657
v 24.624384 10.573394 20.082657
v 9.240885 -4.270347 33.229050
v 9.240885 10.573394 33.229050
v 24.624382 -4.270347 33.229053
v 24.624382 10.573394 33.229053
vt 0.375000 0.000000
vt 0.625000 0.000000
vt 0.625000 0.250000
vt 0.375000 0.250000
vt 0.625000 0.500000
vt 0.375000 0.500000
vt 0.625000 0.750000
vt 0.375000 0.750000
vt 0.625000 1.000000
vt 0.375000 1.000000
vt 0.125000 0.500000
vt 0.125000 0.750000
vt 0.875000 0.500000
vt 0.875000 0.750000
vn 0.0000 0.0000 -1.0000
vn 1.0000 0.0000 0.0000
vn -0.0000 0.0000 1.0000
vn -1.0000 0.0000 -0.0000
vn 0.0000 -1.0000 0.0000
vn 0.0000 1.0000 0.0000
usemtl None
s off
f 33/57/25 34/58/25 36/59/25 35/60/25
f 35/60/26 36/59/26 40/61/26 39/62/26
f 39/62/27 40/61/27 38/63/27 37/64/27
f 37/64/28 38/63/28 34/65/28 33/66/28
f 35/67/29 39/62/29 37/64/29 33/68/29
f 40/61/30 36/69/30 34/70/30 38/63/30
o Cube.006_Cube.009
v -16.639126 -4.109306 20.082657
v -16.639126 10.734436 20.082657
v -1.255632 -4.109306 20.082657
v -1.255632 10.734436 20.082657
v -16.639130 -4.109306 33.229050
v -16.639130 10.734436 33.229050
v -1.255632 -4.109306 33.229050
v -1.255632 10.734436 33.229050
vt 0.375000 0.000000
vt 0.625000 0.000000
vt 0.625000 0.250000
vt 0.375000 0.250000
vt 0.625000 0.500000
vt 0.375000 0.500000
vt 0.625000 0.750000
vt 0.375000 0.750000
vt 0.625000 1.000000
vt 0.375000 1.000000
vt 0.125000 0.500000
vt 0.125000 0.750000
vt 0.875000 0.500000
vt 0.875000 0.750000
vn 0.0000 0.0000 -1.0000
vn 1.0000 0.0000 0.0000
vn 0.0000 0.0000 1.0000
vn -1.0000 0.0000 -0.0000
vn 0.0000 -1.0000 0.0000
vn 0.0000 1.0000 0.0000
usemtl None
s off
f 41/71/31 42/72/31 44/73/31 43/74/31
f 43/74/32 44/73/32 48/75/32 47/76/32
f 47/76/33 48/75/33 46/77/33 45/78/33
f 45/78/34 46/77/34 42/79/34 41/80/34
f 43/81/35 47/76/35 45/78/35 41/82/35
f 48/75/36 44/83/36 42/84/36 46/77/36
o Cube.007_Cube.010
v -16.516861 -4.109306 -5.950066
v -16.516861 10.734436 -5.950066
v -1.133364 -4.109306 -5.950064
v -1.133364 10.734436 -5.950064
v -16.516861 -4.109306 7.196331
v -16.516861 10.734436 7.196331
v -1.133364 -4.109306 7.196333
v -1.133364 10.734436 7.196333
vt 0.375000 0.000000
vt 0.625000 0.000000
vt 0.625000 0.250000
vt 0.375000 0.250000
vt 0.625000 0.500000
vt 0.375000 0.500000
vt 0.625000 0.750000
vt 0.375000 0.750000
vt 0.625000 1.000000
vt 0.375000 1.000000
vt 0.125000 0.500000
vt 0.125000 0.750000
vt 0.875000 0.500000
vt 0.875000 0.750000
vn 0.0000 0.0000 -1.0000
vn 1.0000 0.0000 0.0000
vn -0.0000 0.0000 1.0000
vn -1.0000 0.0000 0.0000
vn 0.0000 -1.0000 0.0000
vn 0.0000 1.0000 0.0000
usemtl None
s off
f 49/85/37 50/86/37 52/87/37 51/88/37
f 51/88/38 52/87/38 56/89/38 55/90/38
f 55/90/39 56/89/39 54/91/39 53/92/39
f 53/92/40 54/91/40 50/93/40 49/94/40
f 51/95/41 55/90/41 53/92/41 49/96/41
f 56/89/42 52/97/42 50/98/42 54/91/42
o Cube.008_Cube.011
v 22.085835 -0.107030 34.785076
v 22.085835 -2.875189 34.785076
v 21.834576 -0.107030 33.800457
v 21.834576 -2.875189 33.800457
v 21.481499 -2.875189 33.598656
v 21.481499 -0.107030 33.598656
v 20.836021 -2.875189 33.859093
v 21.074781 -2.875189 33.685112
v 21.074781 -0.107030 33.685112
v 20.836021 -0.107030 33.859093
v 20.347101 -2.875189 37.068359
v 20.347101 -0.107030 37.068359
v 20.936790 -2.875189 36.493214
v 20.681694 -2.875189 36.849594
v 20.681694 -0.107030 36.849594
v 20.936790 -0.107030 36.493214
v 22.082014 -2.875189 34.063236
v 22.171047 -2.875189 34.379993
v 22.171047 -0.107030 34.379993
v 22.082014 -0.107030 34.063236
v 19.409908 -2.875189 36.654495
v 19.343552 -2.875189 36.386227
v 19.343552 -0.107030 36.386227
v 19.409908 -0.107030 36.654495
v 19.366089 -2.875189 36.061440
v 19.599628 -2.875189 35.631424
v 19.599628 -0.107030 35.631424
v 19.366089 -0.107030 36.061440
v 19.948997 -2.875189 37.081665
v 19.538157 -2.875189 36.861694
v 19.538157 -0.107030 36.861694
v 19.948997 -0.107030 37.081665
vt 0.375000 0.183627
vt 0.625000 0.183627
vt 0.625000 0.267679
vt 0.375000 0.267679
vt 0.625000 0.322482
vt 0.375000 0.322482
vt 0.625000 0.375000
vt 0.375000 0.375000
vt 0.375000 0.522854
vt 0.625000 0.522854
vt 0.625000 0.698054
vt 0.375000 0.698054
vt 0.625000 0.430718
vt 0.375000 0.430718
vt 0.375000 0.479023
vt 0.625000 0.479023
vt 0.625000 0.744560
vt 0.375000 0.744560
vt 0.625000 0.800852
vt 0.375000 0.800852
vt 0.375000 0.905626
vt 0.625000 0.905626
vt 0.625000 0.933340
vt 0.375000 0.933340
vt 0.625000 0.845093
vt 0.375000 0.845093
vt 0.375000 0.000000
vt 0.625000 0.000000
vt 0.625000 0.005163
vt 0.375000 0.005163
vt 0.375000 0.039617
vt 0.625000 0.039617
vt 0.375000 0.016741
vt 0.625000 0.016741
vt 0.250000 0.500000
vt 0.305719 0.500000
vt 0.346948 0.507075
vt 0.357117 0.726678
vt 0.324148 0.750000
vt 0.277917 0.734559
vt 0.219374 0.750000
vt 0.191659 0.750000
vt 0.164979 0.744837
vt 0.142173 0.733258
vt 0.125000 0.710383
vt 0.125000 0.566373
vt 0.161496 0.518817
vt 0.197483 0.500000
vt 0.750000 0.500000
vt 0.802517 0.500000
vt 0.838504 0.518817
vt 0.875000 0.566373
vt 0.875000 0.710383
vt 0.857827 0.733259
vt 0.835021 0.744837
vt 0.808340 0.750000
vt 0.780626 0.750000
vt 0.720093 0.750000
vt 0.675852 0.750000
vt 0.642883 0.726678
vt 0.653052 0.507075
vt 0.694281 0.500000
vn -0.5889 0.0000 -0.8082
vn -0.2079 0.0000 -0.9781
vn 0.4962 0.0000 -0.8682
vn 0.8297 0.0000 0.5582
vn 0.7280 0.0000 -0.6855
vn 0.9786 0.0000 0.2059
vn 0.8132 0.0000 0.5821
vn 0.5472 0.0000 0.8370
vn 0.9627 0.0000 -0.2706
vn -0.8503 0.0000 0.5263
vn 0.0334 0.0000 0.9994
vn -0.9707 0.0000 0.2401
vn -0.8202 0.0000 -0.5721
vn -0.8788 0.0000 -0.4773
vn -0.9976 0.0000 -0.0692
vn 0.0000 -1.0000 0.0000
vn 0.0000 1.0000 0.0000
vn -0.4720 0.0000 0.8816
usemtl None
s off
f 63/99/43 66/100/43 65/101/43 64/102/43
f 62/103/44 61/104/44 64/102/44 65/101/44
f 61/104/45 62/103/45 59/105/45 60/106/45
f 58/107/46 57/108/46 72/109/46 69/110/46
f 60/106/47 59/105/47 76/111/47 73/112/47
f 57/108/48 58/107/48 74/113/48 75/114/48
f 69/110/49 72/109/49 71/115/49 70/116/49
f 68/117/50 67/118/50 70/116/50 71/115/50
f 73/112/51 76/111/51 75/114/51 74/113/51
f 86/119/52 87/120/52 80/121/52 77/122/52
f 67/118/53 68/117/53 88/123/53 85/124/53
f 77/125/54 80/126/54 79/127/54 78/128/54
f 82/129/55 83/130/55 66/100/55 63/99/55
f 83/130/56 82/129/56 81/131/56 84/132/56
f 78/128/57 79/127/57 84/132/57 81/131/57
f 60/133/58 73/134/58 74/135/58 58/107/58 69/110/58 70/136/58 67/137/58 85/138/58 86/139/58 77/140/58 78/141/58 81/142/58 82/143/58 63/144/58 64/145/58 61/146/58
f 59/147/59 62/148/59 65/149/59 66/150/59 83/151/59 84/152/59 79/153/59 80/154/59 87/155/59 88/156/59 68/157/59 71/158/59 72/109/59 57/108/59 75/159/59 76/160/59
f 87/120/60 86/119/60 85/124/60 88/123/60
o Cube.009_Cube.012
v -4.739758 -3.907753 51.226326
v -4.739758 4.006036 51.226326
v -4.739758 -3.907753 44.771255
v -4.739758 4.006036 44.771255
v 10.417819 -3.907753 51.226326
v 10.417819 4.006036 51.226326
v 10.417819 -3.907753 44.771255
v 10.417819 4.006036 44.771255
vt 0.375000 0.000000
vt 0.625000 0.000000
vt 0.625000 0.250000
vt 0.375000 0.250000
vt 0.625000 0.500000
vt 0.375000 0.500000
vt 0.625000 0.750000
vt 0.375000 0.750000
vt 0.625000 1.000000
vt 0.375000 1.000000
vt 0.125000 0.500000
vt 0.125000 0.750000
vt 0.875000 0.500000
vt 0.875000 0.750000
vn -1.0000 0.0000 0.0000
vn 0.0000 0.0000 -1.0000
vn 1.0000 0.0000 0.0000
vn 0.0000 0.0000 1.0000
vn 0.0000 -1.0000 0.0000
vn 0.0000 1.0000 0.0000
usemtl None
s off
f 89/161/61 90/162/61 92/163/61 91/164/61
f 91/164/62 92/163/62 96/165/62 95/166/62
f 95/166/63 96/165/63 94/167/63 93/168/63
f 93/168/64 94/167/64 90/169/64 89/170/64
f 91/171/65 95/166/65 93/168/65 89/172/65
f 96/165/66 92/173/66 90/174/66 94/167/66
o Cube.010_Cube.014
v -14.956661 -0.107030 33.933483
v -14.956661 -2.875189 33.933483
v -15.872368 -0.107030 33.492931
v -15.872368 -2.875189 33.492931
v -16.253931 -2.875189 33.633636
v -16.253931 -0.107030 33.633636
v -16.469421 -2.875189 34.295471
v -16.449184 -2.875189 34.000744
v -16.449184 -0.107030 34.000744
v -16.469421 -0.107030 34.295471
v -14.350376 -2.875189 36.648426
v -14.350376 -0.107030 36.648426
v -14.411806 -2.875189 35.826988
v -14.302834 -2.875189 36.251499
v -14.302834 -0.107030 36.251499
v -14.411806 -0.107030 35.826988
v -15.512014 -2.875189 33.472343
v -15.212154 -2.875189 33.607788
v -15.212154 -0.107030 33.607788
v -15.512014 -0.107030 33.472343
v -15.269894 -2.875189 37.100201
v -15.518036 -2.875189 36.978561
v -15.518036 -0.107030 36.978561
v -15.269894 -0.107030 37.100201
v -15.752319 -2.875189 36.752495
v -15.931553 -2.875189 36.297157
v -15.931553 -0.107030 36.297157
v -15.752319 -0.107030 36.752495
v -14.596125 -2.875189 36.961906
v -15.028740 -2.875189 37.135174
v -15.028740 -0.107030 37.135174
v -14.596125 -0.107030 36.961906
vt 0.375000 0.183627
vt 0.625000 0.183627
vt 0.625000 0.267679
vt 0.375000 0.267679
vt 0.625000 0.322482
vt 0.375000 0.322482
vt 0.625000 0.375000
vt 0.375000 0.375000
vt 0.375000 0.522854
vt 0.625000 0.522854
vt 0.625000 0.698054
vt 0.375000 0.698054
vt 0.625000 0.430718
vt 0.375000 0.430718
vt 0.375000 0.479023
vt 0.625000 0.479023
vt 0.625000 0.744560
vt 0.375000 0.744560
vt 0.625000 0.800852
vt 0.375000 0.800852
vt 0.375000 0.905626
vt 0.625000 0.905626
vt 0.625000 0.933340
vt 0.375000 0.933340
vt 0.625000 0.845093
vt 0.375000 0.845093
vt 0.375000 0.000000
vt 0.625000 0.000000
vt 0.625000 0.005163
vt 0.375000 0.005163
vt 0.375000 0.039617
vt 0.625000 0.039617
vt 0.375000 0.016741
vt 0.625000 0.016741
vt 0.250000 0.500000
vt 0.305719 0.500000
vt 0.346948 0.507075
vt 0.357117 0.726678
vt 0.324148 0.750000
vt 0.277917 0.734559
vt 0.219374 0.750000
vt 0.191659 0.750000
vt 0.164979 0.744837
vt 0.142173 0.733258
vt 0.125000 0.710383
vt 0.125000 0.566373
vt 0.161496 0.518817
vt 0.197483 0.500000
vt 0.750000 0.500000
vt 0.802517 0.500000
vt 0.838504 0.518817
vt 0.875000 0.566373
vt 0.875000 0.710383
vt 0.857827 0.733259
vt 0.835021 0.744837
vt 0.808340 0.750000
vt 0.780626 0.750000
vt 0.720093 0.750000
vt 0.675852 0.750000
vt 0.642883 0.726678
vt 0.653052 0.507075
vt 0.694281 0.500000
vn -0.9977 0.0000 -0.0685
vn -0.8829 0.0000 -0.4696
vn -0.3460 0.0000 -0.9382
vn 0.9610 0.0000 -0.2765
vn -0.0570 0.0000 -0.9984
vn 0.7868 0.0000 -0.6172
vn 0.9686 0.0000 -0.2486
vn 0.9929 0.0000 0.1189
vn 0.4116 0.0000 -0.9113
vn -0.1435 0.0000 0.9896
vn 0.7870 0.0000 0.6170
vn -0.4402 0.0000 0.8979
vn -0.9657 0.0000 0.2595
vn -0.9305 0.0000 0.3663
vn -0.6944 0.0000 0.7196
vn 0.0000 -1.0000 -0.0000
vn 0.0000 1.0000 0.0000
vn 0.3718 0.0000 0.9283
usemtl None
s off
f 103/175/67 106/176/67 105/177/67 104/178/67
f 102/179/68 101/180/68 104/178/68 105/177/68
f 101/180/69 102/179/69 99/181/69 100/182/69
f 98/183/70 97/184/70 112/185/70 109/186/70
f 100/182/71 99/181/71 116/187/71 113/188/71
f 97/184/72 98/183/72 114/189/72 115/190/72
f 109/186/73 112/185/73 111/191/73 110/192/73
f 108/193/74 107/194/74 110/192/74 111/191/74
f 113/188/75 116/187/75 115/190/75 114/189/75
f 126/195/76 127/196/76 120/197/76 117/198/76
f 107/194/77 108/193/77 128/199/77 125/200/77
f 117/201/78 120/202/78 119/203/78 118/204/78
f 122/205/79 123/206/79 106/176/79 103/175/79
f 123/206/80 122/205/80 121/207/80 124/208/80
f 118/204/81 119/203/81 124/208/81 121/207/81
f 100/209/82 113/210/82 114/211/82 98/183/82 109/186/82 110/212/82 107/213/82 125/214/82 126/215/82 117/216/82 118/217/82 121/218/82 122/219/82 103/220/82 104/221/82 101/222/82
f 99/223/83 102/224/83 105/225/83 106/226/83 123/227/83 124/228/83 119/229/83 120/230/83 127/231/83 128/232/83 108/233/83 111/234/83 112/185/83 97/184/83 115/235/83 116/236/83
f 127/196/84 126/195/84 125/200/84 128/199/84
o Cube.011_Cube.015
v -18.957077 -3.981575 52.410194
v -19.818592 -3.981575 51.998791
v -19.818592 -0.149576 51.998791
v -18.957077 -0.149576 52.410194
v -19.928864 -3.981575 48.759895
v -19.274490 -3.981575 48.217304
v -19.274490 -0.149576 48.217304
v -19.928864 -0.149576 48.759895
v -16.482914 -3.981575 49.385605
v -16.274595 -3.981575 50.490765
v -16.274595 -0.149576 50.490765
v -16.482914 -0.149576 49.385605
vt 0.125000 0.525017
vt 0.150008 0.500000
vt 0.339195 0.500000
vt 0.344227 0.528526
vt 0.172637 0.701874
vt 0.125000 0.695555
vt 0.679445 0.891110
vt 0.625000 0.903749
vt 0.625000 0.557052
vt 0.658610 0.500000
vt 0.849736 0.500000
vt 0.849983 0.550033
vt 0.173328 0.701875
vt 0.347407 0.528526
vt 0.375203 0.000000
vt 0.625000 0.000000
vt 0.625000 0.054445
vt 0.375000 0.054445
vt 0.625000 0.275264
vt 0.375000 0.275007
vt 0.375000 0.224983
vt 0.625000 0.224983
vt 0.375000 0.464195
vt 0.625000 0.466390
vn 0.0000 -1.0000 0.0000
vn 0.0000 1.0000 0.0000
vn 0.5819 0.0000 0.8132
vn -0.4309 0.0000 0.9024
vn -0.6383 0.0000 -0.7698
vn -0.9994 0.0000 0.0340
vn 0.9827 0.0000 -0.1852
vn 0.3861 0.0000 -0.9225
usemtl None
s off
f 133/237/85 134/238/85 137/239/85 138/240/85 129/241/85 130/242/85
f 131/243/86 132/244/86 139/245/86 140/246/86 135/247/86 136/248/86
f 129/249/87 138/250/87 139/245/87 132/244/87
f 129/251/88 132/252/88 131/253/88 130/254/88
f 135/255/89 134/256/89 133/257/89 136/258/89
f 130/254/90 131/253/90 136/258/90 133/257/90
f 139/245/91 138/250/91 137/259/91 140/260/91
f 134/256/92 135/255/92 140/260/92 137/259/92
o Cube.012_Cube.016
v -34.206684 -2.875189 43.505718
v -34.206684 -0.107030 43.505718
v -33.238239 -2.875189 43.813484
v -33.238239 -0.107030 43.813484
v -34.564739 -2.875189 43.698547
v -34.564739 -0.107030 43.698547
v -34.685276 -2.875189 44.384068
v -34.706577 -2.875189 44.089413
v -34.706577 -0.107030 44.089413
v -34.685276 -0.107030 44.384068
v -32.250431 -2.875189 46.827885
v -32.250431 -0.107030 46.827885
v -32.426464 -2.875189 46.023186
v -32.259029 -2.875189 46.428215
v -32.259029 -0.107030 46.428215
v -32.426464 -0.107030 46.023186
v -33.852779 -2.875189 43.434792
v -33.536888 -2.875189 43.526840
v -33.536888 -0.107030 43.526840
v -33.852779 -0.107030 43.434792
v -33.097496 -2.875189 47.404160
v -33.360245 -2.875189 47.318527
v -33.360245 -0.107030 47.318527
v -33.097496 -0.107030 47.404160
v -33.623920 -2.875189 47.127556
v -33.865246 -2.875189 46.701859
v -33.865246 -0.107030 46.701859
v -33.623920 -0.107030 47.127556
v -32.449783 -2.875189 47.172733
v -32.853821 -2.875189 47.404968
v -32.853821 -0.107030 47.404968
v -32.449783 -0.107030 47.172733
vt 0.375000 0.322482
vt 0.625000 0.322482
vt 0.625000 0.375000
vt 0.375000 0.375000
vt 0.625000 0.430718
vt 0.375000 0.430718
vt 0.375000 0.267679
vt 0.625000 0.267679
vt 0.375000 0.183627
vt 0.625000 0.183627
vt 0.375000 0.522854
vt 0.625000 0.522854
vt 0.625000 0.698054
vt 0.375000 0.698054
vt 0.375000 0.479023
vt 0.625000 0.479023
vt 0.625000 0.744560
vt 0.375000 0.744560
vt 0.625000 0.800852
vt 0.375000 0.800852
vt 0.375000 0.905626
vt 0.625000 0.905626
vt 0.625000 0.933340
vt 0.375000 0.933340
vt 0.625000 0.845093
vt 0.375000 0.845093
vt 0.375000 0.000000
vt 0.625000 0.000000
vt 0.625000 0.005163
vt 0.375000 0.005163
vt 0.375000 0.039617
vt 0.625000 0.039617
vt 0.375000 0.016741
vt 0.625000 0.016741
vt 0.250000 0.500000
vt 0.305719 0.500000
vt 0.346948 0.507075
vt 0.357117 0.726678
vt 0.324148 0.750000
vt 0.277917 0.734559
vt 0.219374 0.750000
vt 0.191659 0.750000
vt 0.164979 0.744837
vt 0.142173 0.733258
vt 0.125000 0.710383
vt 0.125000 0.566373
vt 0.161496 0.518817
vt 0.197483 0.500000
vt 0.750000 0.500000
vt 0.802517 0.500000
vt 0.838504 0.518817
vt 0.875000 0.566373
vt 0.875000 0.710383
vt 0.857827 0.733259
vt 0.835021 0.744837
vt 0.808340 0.750000
vt 0.780626 0.750000
vt 0.720093 0.750000
vt 0.675852 0.750000
vt 0.642883 0.726678
vt 0.653052 0.507075
vt 0.694281 0.500000
vn -0.4742 0.0000 -0.8804
vn -0.1965 0.0000 -0.9805
vn -0.9400 0.0000 -0.3411
vn -0.9974 0.0000 0.0721
vn 0.9387 0.0000 -0.3448
vn 0.6925 0.0000 -0.7215
vn 0.9241 0.0000 -0.3820
vn 0.9998 0.0000 -0.0215
vn 0.2798 0.0000 -0.9601
vn -0.0033 0.0000 1.0000
vn 0.8657 0.0000 0.5005
vn -0.3099 0.0000 0.9508
vn -0.9427 0.0000 0.3335
vn -0.8699 0.0000 0.4932
vn -0.5866 0.0000 0.8099
vn 0.0000 -1.0000 -0.0000
vn 0.0000 1.0000 -0.0000
vn 0.4983 0.0000 0.8670
usemtl None
s off
f 145/261/93 146/262/93 142/263/93 141/264/93
f 141/264/94 142/263/94 160/265/94 157/266/94
f 146/262/95 145/261/95 148/267/95 149/268/95
f 147/269/96 150/270/96 149/268/96 148/267/96
f 143/271/97 144/272/97 156/273/97 153/274/97
f 144/272/98 143/271/98 158/275/98 159/276/98
f 153/274/99 156/273/99 155/277/99 154/278/99
f 152/279/100 151/280/100 154/278/100 155/277/100
f 157/266/101 160/265/101 159/276/101 158/275/101
f 170/281/102 171/282/102 164/283/102 161/284/102
f 151/280/103 152/279/103 172/285/103 169/286/103
f 161/287/104 164/288/104 163/289/104 162/290/104
f 166/291/105 167/292/105 150/270/105 147/269/105
f 167/292/106 166/291/106 165/293/106 168/294/106
f 162/290/107 163/289/107 168/294/107 165/293/107
f 141/295/108 157/296/108 158/297/108 143/271/108 153/274/108 154/298/108 151/299/108 169/300/108 170/301/108 161/302/108 162/303/108 165/304/108 166/305/108 147/306/108 148/307/108 145/308/108
f 142/309/109 146/310/109 149/311/109 150/312/109 167/313/109 168/314/109 163/315/109 164/316/109 171/317/109 172/318/109 152/319/109 155/320/109 156/273/109 144/272/109 159/321/109 160/322/109
f 171/282/110 170/281/110 169/286/110 172/285/110
o Cube.013_Cube.017
v 40.127289 -3.981575 31.122417
v 40.262299 -3.981575 30.899014
v 40.262299 -0.149576 30.899015
v 40.127289 -0.149576 31.122417
v 43.671837 -3.981575 32.588676
v 42.988014 -3.981575 32.711933
v 42.988014 -0.149576 32.711933
v 43.671837 -0.149576 32.588676
v 43.906178 -3.981575 32.365883
v 43.906178 -0.149576 32.365883
v 44.074936 -3.981575 32.011780
v 44.074936 -0.149576 32.011780
v 44.182053 -3.981575 31.179703
v 44.136318 -3.981575 31.726105
v 44.136318 -0.149576 31.726105
v 44.182053 -0.149576 31.179703
v 43.832397 -3.981575 28.612312
v 44.151024 -3.981575 29.036415
v 44.151024 -0.149576 29.036415
v 43.832397 -0.149576 28.612312
v 43.517319 -3.981575 28.503246
v 43.678001 -3.981575 28.533007
v 43.678001 -0.149576 28.533007
v 43.517319 -0.149576 28.503246
v 42.965492 -3.981575 28.613573
v 43.303162 -3.981575 28.493774
v 43.303162 -0.149576 28.493774
v 42.965492 -0.149576 28.613573
v 40.208794 -3.981575 31.802547
v 40.077801 -3.981575 31.460220
v 40.077801 -0.149576 31.460220
v 40.208794 -0.149576 31.802547
v 40.572487 -3.981575 32.137047
v 40.354210 -3.981575 31.989761
v 40.354210 -0.149576 31.989761
v 40.572487 -0.149576 32.137047
vt 0.625000 0.064174
vt 0.375000 0.064174
vt 0.375052 0.040485
vt 0.625000 0.040485
vt 0.375088 0.030913
vt 0.625000 0.030913
vt 0.625000 0.595536
vt 0.328084 0.547768
vt 0.356709 0.506838
vt 0.625000 0.526487
vt 0.125000 0.540485
vt 0.127310 0.530049
vt 0.131242 0.520802
vt 0.135254 0.514758
vt 0.140361 0.509650
vt 0.167894 0.500000
vt 0.286040 0.500000
vt 0.313749 0.502079
vt 0.327102 0.504277
vt 0.341003 0.510251
vt 0.342531 0.518909
vt 0.325180 0.547768
vt 0.200442 0.673784
vt 0.176844 0.689738
vt 0.166555 0.694272
vt 0.145590 0.698286
vt 0.137214 0.697175
vt 0.125000 0.685826
vt 0.365084 0.487314
vt 0.625000 0.498971
vt 0.201537 0.673784
vt 0.625000 0.847569
vt 0.370863 0.460993
vt 0.625000 0.467004
vt 0.375000 0.411040
vt 0.625000 0.412690
vt 0.625000 0.446921
vt 0.372989 0.443071
vt 0.625000 0.293334
vt 0.375000 0.292894
vt 0.375000 0.255710
vt 0.625000 0.255868
vt 0.375000 0.245496
vt 0.625000 0.245601
vt 0.375000 0.235440
vt 0.625000 0.235504
vt 0.625000 0.209515
vt 0.375000 0.209515
vt 0.625000 0.222285
vt 0.375000 0.222261
vt 0.375151 0.013747
vt 0.625000 0.013747
vt 0.689174 0.871652
vt 0.665485 0.894350
vt 0.655913 0.896573
vt 0.638747 0.888545
vt 0.632887 0.879475
vt 0.636331 0.537818
vt 0.646531 0.520503
vt 0.666550 0.508554
vt 0.682237 0.504158
vt 0.712310 0.500000
vt 0.831666 0.500000
vt 0.849832 0.519301
vt 0.849882 0.529517
vt 0.847891 0.541605
vt 0.842618 0.560098
vt 0.834515 0.580970
vt 0.375203 0.000000
vt 0.625000 0.000000
vt 0.625000 0.007887
vt 0.375173 0.007887
vn -0.8559 0.0000 -0.5172
vn -0.9894 0.0000 -0.1450
vn 0.1774 0.0000 0.9841
vn 0.0000 -1.0000 0.0000
vn 0.6890 0.0000 0.7247
vn -0.2315 0.0000 0.9728
vn 0.9027 0.0000 0.4302
vn 0.9965 0.0000 0.0834
vn 0.9777 0.0000 0.2101
vn 0.7995 0.0000 -0.6007
vn 0.9999 0.0000 -0.0145
vn 0.4569 0.0000 -0.8895
vn 0.1821 0.0000 -0.9833
vn -0.6456 0.0000 -0.7636
vn -0.3344 0.0000 -0.9424
vn 0.0442 0.0000 -0.9990
vn -0.9340 0.0000 0.3574
vn 0.0000 1.0000 0.0000
vn -0.5593 0.0000 0.8289
vn -0.7897 0.0000 0.6134
usemtl None
s off
f 175/323/111 174/324/111 173/325/111 176/326/111
f 202/327/112 203/328/112 176/326/112 173/325/112
f 179/329/113 178/330/113 177/331/113 180/332/113
f 197/333/114 198/334/114 193/335/114 194/336/114 189/337/114 190/338/114 185/339/114 186/340/114 183/341/114 181/342/114 177/343/114 178/344/114 205/345/114 206/346/114 201/347/114 202/348/114 173/349/114 174/350/114
f 180/332/115 177/331/115 181/351/115 182/352/115
f 205/353/116 178/330/116 179/329/116 208/354/116
f 183/355/117 184/356/117 182/352/117 181/351/117
f 185/357/118 188/358/118 187/359/118 186/360/118
f 186/360/119 187/359/119 184/356/119 183/355/119
f 191/361/120 190/362/120 189/363/120 192/364/120
f 190/362/121 191/361/121 188/358/121 185/357/121
f 192/364/122 189/363/122 194/365/122 195/366/122
f 195/366/123 194/365/123 193/367/123 196/368/123
f 174/324/124 175/323/124 200/369/124 197/370/124
f 197/370/125 200/369/125 199/371/125 198/372/125
f 198/372/126 199/371/126 196/368/126 193/367/126
f 203/328/127 202/327/127 201/373/127 204/374/127
f 175/375/128 176/376/128 203/377/128 204/378/128 207/379/128 208/354/128 179/329/128 180/380/128 182/381/128 184/382/128 187/383/128 188/384/128 191/385/128 192/386/128 195/387/128 196/388/128 199/389/128 200/390/128
f 205/391/129 208/392/129 207/393/129 206/394/129
f 206/394/130 207/393/130 204/374/130 201/373/130
o Cube.014_Cube.018
v 25.213541 -0.107030 -20.178074
v 25.213541 -2.875189 -20.178074
v 26.225979 -0.107030 -20.265106
v 26.225979 -2.875189 -20.265106
v 26.482750 -2.875189 -20.580471
v 26.482750 -0.107030 -20.580471
v 26.331266 -2.875189 -21.259823
v 26.463902 -2.875189 -20.995850
v 26.463902 -0.107030 -20.995850
v 26.331266 -0.107030 -21.259823
v 23.289066 -2.875189 -22.325249
v 23.289066 -0.107030 -22.325249
v 23.760155 -2.875189 -21.649521
v 23.450237 -2.875189 -21.959412
v 23.450237 -0.107030 -21.959412
v 23.760155 -0.107030 -21.649521
v 25.926306 -2.875189 -20.063923
v 25.599260 -2.875189 -20.027836
v 25.599260 -0.107030 -20.027836
v 25.926306 -0.107030 -20.063923
v 23.850481 -2.875189 -23.182240
v 24.125986 -2.875189 -23.203873
v 24.125986 -0.107030 -23.203873
v 23.850481 -0.107030 -23.182240
v 24.442728 -2.875189 -23.128586
v 24.828815 -2.875189 -22.827934
v 24.828815 -0.107030 -22.827934
v 24.442728 -0.107030 -23.128586
v 23.340981 -2.875189 -22.720177
v 23.625113 -2.875189 -23.089554
v 23.625113 -0.107030 -23.089554
v 23.340981 -0.107030 -22.720177
vt 0.375000 0.183627
vt 0.625000 0.183627
vt 0.625000 0.267679
vt 0.375000 0.267679
vt 0.625000 0.322482
vt 0.375000 0.322482
vt 0.625000 0.375000
vt 0.375000 0.375000
vt 0.375000 0.522854
vt 0.625000 0.522854
vt 0.625000 0.698054
vt 0.375000 0.698054
vt 0.625000 0.430718
vt 0.375000 0.430718
vt 0.375000 0.479023
vt 0.625000 0.479023
vt 0.625000 0.744560
vt 0.375000 0.744560
vt 0.625000 0.800852
vt 0.375000 0.800852
vt 0.375000 0.905626
vt 0.625000 0.905626
vt 0.625000 0.933340
vt 0.375000 0.933340
vt 0.625000 0.845093
vt 0.375000 0.845093
vt 0.375000 0.000000
vt 0.625000 0.000000
vt 0.625000 0.005163
vt 0.375000 0.005163
vt 0.375000 0.039617
vt 0.625000 0.039617
vt 0.375000 0.016741
vt 0.625000 0.016741
vt 0.250000 0.500000
vt 0.305719 0.500000
vt 0.346948 0.507075
vt 0.357117 0.726678
vt 0.324148 0.750000
vt 0.277917 0.734559
vt 0.219374 0.750000
vt 0.191659 0.750000
vt 0.164979 0.744837
vt 0.142173 0.733258
vt 0.125000 0.710383
vt 0.125000 0.566373
vt 0.161496 0.518817
vt 0.197483 0.500000
vt 0.750000 0.500000
vt 0.802517 0.500000
vt 0.838504 0.518817
vt 0.875000 0.566373
vt 0.875000 0.710383
vt 0.857827 0.733259
vt 0.835021 0.744837
vt 0.808340 0.750000
vt 0.780626 0.750000
vt 0.720093 0.750000
vt 0.675852 0.750000
vt 0.642883 0.726678
vt 0.653052 0.507075
vt 0.694281 0.500000
vn 0.8935 0.0000 -0.4490
vn 0.9990 0.0000 -0.0453
vn 0.7755 0.0000 0.6314
vn -0.7115 0.0000 0.7027
vn 0.5574 0.0000 0.8303
vn -0.3629 0.0000 0.9318
vn -0.7071 0.0000 0.7071
vn -0.9151 0.0000 0.4032
vn 0.1097 0.0000 0.9940
vn -0.3804 0.0000 -0.9248
vn -0.9915 0.0000 -0.1303
vn -0.0783 0.0000 -0.9969
vn 0.7221 0.0000 -0.6918
vn 0.6144 0.0000 -0.7890
vn 0.2313 0.0000 -0.9729
vn 0.0000 -1.0000 -0.0000
vn 0.0000 1.0000 0.0000
vn -0.7926 0.0000 -0.6097
usemtl None
s off
f 215/395/131 218/396/131 217/397/131 216/398/131
f 214/399/132 213/400/132 216/398/132 217/397/132
f 213/400/133 214/399/133 211/401/133 212/402/133
f 210/403/134 209/404/134 224/405/134 221/406/134
f 212/402/135 211/401/135 228/407/135 225/408/135
f 209/404/136 210/403/136 226/409/136 227/410/136
f 221/406/137 224/405/137 223/411/137 222/412/137
f 220/413/138 219/414/138 222/412/138 223/411/138
f 225/408/139 228/407/139 227/410/139 226/409/139
f 238/415/140 239/416/140 232/417/140 229/418/140
f 219/414/141 220/413/141 240/419/141 237/420/141
f 229/421/142 232/422/142 231/423/142 230/424/142
f 234/425/143 235/426/143 218/396/143 215/395/143
f 235/426/144 234/425/144 233/427/144 236/428/144
f 230/424/145 231/423/145 236/428/145 233/427/145
f 212/429/146 225/430/146 226/431/146 210/403/146 221/406/146 222/432/146 219/433/146 237/434/146 238/435/146 229/436/146 230/437/146 233/438/146 234/439/146 215/440/146 216/441/146 213/442/146
f 211/443/147 214/444/147 217/445/147 218/446/147 235/447/147 236/448/147 231/449/147 232/450/147 239/451/147 240/452/147 220/453/147 223/454/147 224/405/147 209/404/147 227/455/147 228/456/147
f 239/416/148 238/415/148 237/420/148 240/419/148
o Cube.015_Cube.019
v 27.710817 -0.107030 -19.605377
v 27.710817 -2.875189 -19.605377
v 28.530891 -0.107030 -20.205448
v 28.530891 -2.875189 -20.205448
v 28.586590 -2.875189 -20.608292
v 28.586590 -0.107030 -20.608292
v 28.104383 -2.875189 -21.110237
v 28.354803 -2.875189 -20.953499
v 28.354803 -0.107030 -20.953499
v 28.104383 -0.107030 -21.110237
v 24.944061 -2.875189 -20.368050
v 24.944061 -0.107030 -20.368050
v 25.697525 -2.875189 -20.035152
v 25.271755 -2.875189 -20.139076
v 25.271755 -0.107030 -20.139076
v 25.697525 -0.107030 -20.035152
v 28.379244 -2.875189 -19.877907
v 28.118477 -2.875189 -19.677254
v 28.118477 -0.107030 -19.677254
v 28.379244 -0.107030 -19.877907
v 24.978889 -2.875189 -21.391964
v 25.203110 -2.875189 -21.553505
v 25.203110 -0.107030 -21.553505
v 24.978889 -0.107030 -21.391964
v 25.512901 -2.875189 -21.653622
v 25.998970 -2.875189 -21.597145
v 25.998970 -0.107030 -21.597145
v 25.512901 -0.107030 -21.653622
v 24.783371 -2.875189 -20.732521
v 24.834404 -2.875189 -21.195736
v 24.834404 -0.107030 -21.195736
v 24.783371 -0.107030 -20.732521
vt 0.375000 0.183627
vt 0.625000 0.183627
vt 0.625000 0.267679
vt 0.375000 0.267679
vt 0.625000 0.322482
vt 0.375000 0.322482
vt 0.625000 0.375000
vt 0.375000 0.375000
vt 0.375000 0.522854
vt 0.625000 0.522854
vt 0.625000 0.698054
vt 0.375000 0.698054
vt 0.625000 0.430718
vt 0.375000 0.430718
vt 0.375000 0.479023
vt 0.625000 0.479023
vt 0.625000 0.744560
vt 0.375000 0.744560
vt 0.625000 0.800852
vt 0.375000 0.800852
vt 0.375000 0.905626
vt 0.625000 0.905626
vt 0.625000 0.933340
vt 0.375000 0.933340
vt 0.625000 0.845093
vt 0.375000 0.845093
vt 0.375000 0.000000
vt 0.625000 0.000000
vt 0.625000 0.005163
vt 0.375000 0.005163
vt 0.375000 0.039617
vt 0.625000 0.039617
vt 0.375000 0.016741
vt 0.625000 0.016741
vt 0.250000 0.500000
vt 0.305719 0.500000
vt 0.346948 0.507075
vt 0.357117 0.726678
vt 0.324148 0.750000
vt 0.277917 0.734559
vt 0.219374 0.750000
vt 0.191659 0.750000
vt 0.164979 0.744837
vt 0.142173 0.733258
vt 0.125000 0.710383
vt 0.125000 0.566373
vt 0.161496 0.518817
vt 0.197483 0.500000
vt 0.750000 0.500000
vt 0.802517 0.500000
vt 0.838504 0.518817
vt 0.875000 0.566373
vt 0.875000 0.710383
vt 0.857827 0.733259
vt 0.835021 0.744837
vt 0.808340 0.750000
vt 0.780626 0.750000
vt 0.720093 0.750000
vt 0.675852 0.750000
vt 0.642883 0.726678
vt 0.653052 0.507075
vt 0.694281 0.500000
vn 0.5306 0.0000 -0.8477
vn 0.8302 0.0000 -0.5574
vn 0.9906 0.0000 0.1370
vn -0.2088 0.0000 0.9780
vn 0.9075 0.0000 0.4201
vn 0.1736 0.0000 0.9848
vn -0.2371 0.0000 0.9715
vn -0.5728 0.0000 0.8197
vn 0.6098 0.0000 0.7925
vn -0.8053 0.0000 -0.5929
vn -0.9150 0.0000 0.4034
vn -0.5846 0.0000 -0.8114
vn 0.2253 0.0000 -0.9743
vn 0.1154 0.0000 -0.9933
vn -0.3075 0.0000 -0.9515
vn 0.0000 -1.0000 -0.0000
vn 0.0000 1.0000 -0.0000
vn -0.9940 0.0000 -0.1095
usemtl None
s off
f 247/457/149 250/458/149 249/459/149 248/460/149
f 246/461/150 245/462/150 248/460/150 249/459/150
f 245/462/151 246/461/151 243/463/151 244/464/151
f 242/465/152 241/466/152 256/467/152 253/468/152
f 244/464/153 243/463/153 260/469/153 257/470/153
f 241/466/154 242/465/154 258/471/154 259/472/154
f 253/468/155 256/467/155 255/473/155 254/474/155
f 252/475/156 251/476/156 254/474/156 255/473/156
f 257/470/157 260/469/157 259/472/157 258/471/157
f 270/477/158 271/478/158 264/479/158 261/480/158
f 251/476/159 252/475/159 272/481/159 269/482/159
f 261/483/160 264/484/160 263/485/160 262/486/160
f 266/487/161 267/488/161 250/458/161 247/457/161
f 267/488/162 266/487/162 265/489/162 268/490/162
f 262/486/163 263/485/163 268/490/163 265/489/163
f 244/491/164 257/492/164 258/493/164 242/465/164 253/468/164 254/494/164 251/495/164 269/496/164 270/497/164 261/498/164 262/499/164 265/500/164 266/501/164 247/502/164 248/503/164 245/504/164
f 243/505/165 246/506/165 249/507/165 250/508/165 267/509/165 268/510/165 263/511/165 264/512/165 271/513/165 272/514/165 252/515/165 255/516/165 256/467/165 241/466/165 259/517/165 260/518/165
f 271/478/166 270/477/166 269/482/166 272/481/166
o Cube.016_Cube.020
v 29.299074 -0.107030 -18.532665
v 29.299074 -2.875189 -18.532665
v 30.266909 -0.107030 -18.842350
v 30.266909 -2.875189 -18.842350
v 30.447237 -2.875189 -19.206860
v 30.447237 -0.107030 -19.206860
v 30.148676 -2.875189 -19.835613
v 30.336617 -2.875189 -19.607677
v 30.336617 -0.107030 -19.607677
v 30.148676 -0.107030 -19.835613
v 26.915909 -2.875189 -20.131771
v 26.915909 -0.107030 -20.131771
v 27.525290 -2.875189 -19.577526
v 27.154293 -2.875189 -19.810856
v 27.154293 -0.107030 -19.810856
v 27.525290 -0.107030 -19.577526
v 30.019394 -2.875189 -18.579639
v 29.708527 -2.875189 -18.471828
v 29.708527 -0.107030 -18.471828
v 30.019394 -0.107030 -18.579639
v 27.273001 -2.875189 -21.092030
v 27.536823 -2.875189 -21.174305
v 27.536823 -0.107030 -21.174305
v 27.273001 -0.107030 -21.092030
v 27.862375 -2.875189 -21.171230
v 28.305586 -2.875189 -20.963825
v 28.305586 -0.107030 -20.963825
v 27.862375 -0.107030 -21.171230
v 26.878830 -2.875189 -20.528362
v 27.073841 -2.875189 -20.951618
v 27.073841 -0.107030 -20.951618
v 26.878830 -0.107030 -20.528362
vt 0.375000 0.183627
vt 0.625000 0.183627
vt 0.625000 0.267679
vt 0.375000 0.267679
vt 0.625000 0.322482
vt 0.375000 0.322482
vt 0.625000 0.375000
vt 0.375000 0.375000
vt 0.375000 0.522854
vt 0.625000 0.522854
vt 0.625000 0.698054
vt 0.375000 0.698054
vt 0.625000 0.430718
vt 0.375000 0.430718
vt 0.375000 0.479023
vt 0.625000 0.479023
vt 0.625000 0.744560
vt 0.375000 0.744560
vt 0.625000 0.800852
vt 0.375000 0.800852
vt 0.375000 0.905626
vt 0.625000 0.905626
vt 0.625000 0.933340
vt 0.375000 0.933340
vt 0.625000 0.845093
vt 0.375000 0.845093
vt 0.375000 0.000000
vt 0.625000 0.000000
vt 0.625000 0.005163
vt 0.375000 0.005163
vt 0.375000 0.039617
vt 0.625000 0.039617
vt 0.375000 0.016741
vt 0.625000 0.016741
vt 0.250000 0.500000
vt 0.305719 0.500000
vt 0.346948 0.507075
vt 0.357117 0.726678
vt 0.324148 0.750000
vt 0.277917 0.734559
vt 0.219374 0.750000
vt 0.191659 0.750000
vt 0.164979 0.744837
vt 0.142173 0.733258
vt 0.125000 0.710383
vt 0.125000 0.566373
vt 0.161496 0.518817
vt 0.197483 0.500000
vt 0.750000 0.500000
vt 0.802517 0.500000
vt 0.838504 0.518817
vt 0.875000 0.566373
vt 0.875000 0.710383
vt 0.857827 0.733259
vt 0.835021 0.744837
vt 0.808340 0.750000
vt 0.780626 0.750000
vt 0.720093 0.750000
vt 0.675852 0.750000
vt 0.642883 0.726678
vt 0.653052 0.507075
vt 0.694281 0.500000
vn 0.7716 0.0000 -0.6362
vn 0.9640 0.0000 -0.2660
vn 0.8963 0.0000 0.4434
vn -0.5075 0.0000 0.8616
vn 0.7278 0.0000 0.6857
vn -0.1470 0.0000 0.9891
vn -0.5324 0.0000 0.8465
vn -0.8028 0.0000 0.5963
vn 0.3277 0.0000 0.9448
vn -0.5762 0.0000 -0.8173
vn -0.9957 0.0000 0.0931
vn -0.2977 0.0000 -0.9547
vn 0.5221 0.0000 -0.8529
vn 0.4238 0.0000 -0.9057
vn 0.0094 0.0000 -1.0000
vn 0.0000 -1.0000 -0.0000
vn 0.0000 1.0000 -0.0000
vn -0.9082 0.0000 -0.4185
usemtl None
s off
f 279/519/167 282/520/167 281/521/167 280/522/167
f 278/523/168 277/524/168 280/522/168 281/521/168
f 277/524/169 278/523/169 275/525/169 276/526/169
f 274/527/170 273/528/170 288/529/170 285/530/170
f 276/526/171 275/525/171 292/531/171 289/532/171
f 273/528/172 274/527/172 290/533/172 291/534/172
f 285/530/173 288/529/173 287/535/173 286/536/173
f 284/537/174 283/538/174 286/536/174 287/535/174
f 289/532/175 292/531/175 291/534/175 290/533/175
f 302/539/176 303/540/176 296/541/176 293/542/176
f 283/538/177 284/537/177 304/543/177 301/544/177
f 293/545/178 296/546/178 295/547/178 294/548/178
f 298/549/179 299/550/179 282/520/179 279/519/179
f 299/550/180 298/549/180 297/551/180 300/552/180
f 294/548/181 295/547/181 300/552/181 297/551/181
f 276/553/182 289/554/182 290/555/182 274/527/182 285/530/182 286/556/182 283/557/182 301/558/182 302/559/182 293/560/182 294/561/182 297/562/182 298/563/182 279/564/182 280/565/182 277/566/182
f 275/567/183 278/568/183 281/569/183 282/570/183 299/571/183 300/572/183 295/573/183 296/574/183 303/575/183 304/576/183 284/577/183 287/578/183 288/529/183 273/528/183 291/579/183 292/580/183
f 303/540/184 302/539/184 301/544/184 304/543/184
o Cube.017_Cube.021
v 34.348083 -2.769875 -26.231451
v 34.348083 -0.895594 -26.231451
v 45.646751 -2.769875 -21.869328
v 45.646751 -0.737884 -21.869328
v 32.473457 -2.805886 -21.675804
v 32.473457 -0.931605 -21.675804
v 43.772125 -2.805886 -17.313667
v 43.772125 -0.773895 -17.313667
v 37.961266 -2.769875 -24.866491
v 37.961266 0.722155 -24.866491
v 36.086624 -2.805886 -20.310837
v 36.086624 0.686144 -20.310837
v 42.753036 0.722155 -23.010515
v 40.878410 -2.805886 -18.454866
v 42.753036 -2.769875 -23.010515
v 40.878410 0.686144 -18.454866
vt 0.375000 0.190263
vt 0.625000 0.190263
vt 0.625000 0.250000
vt 0.375000 0.250000
vt 0.625000 0.500000
vt 0.375000 0.500000
vt 0.375000 0.674814
vt 0.625000 0.674814
vt 0.625000 0.750000
vt 0.375000 0.750000
vt 0.625000 1.000000
vt 0.375000 1.000000
vt 0.125000 0.674814
vt 0.125000 0.750000
vt 0.875000 0.674814
vt 0.875000 0.750000
vt 0.625000 0.559737
vt 0.875000 0.559737
vt 0.125000 0.559737
vt 0.375000 0.559737
vt 0.375000 0.000000
vt 0.625000 0.000000
vt 0.625000 0.075186
vt 0.375000 0.075186
vt 0.125000 0.500000
vt 0.875000 0.500000
vn 0.3669 0.0000 -0.9303
vn 0.9248 0.0000 0.3805
vn -0.3534 0.0000 0.9355
vn -0.9248 0.0000 -0.3805
vn 0.0026 -1.0000 -0.0068
vn -0.3598 0.9224 -0.1408
vn -0.0026 1.0000 0.0068
vn -0.3612 0.0000 0.9325
vn 0.3534 0.0000 -0.9355
vn -0.3669 0.0000 0.9303
vn 0.0027 -1.0000 -0.0068
vn 0.3905 0.9052 0.1678
vn 0.3612 0.0000 -0.9325
usemtl None
s off
f 319/581/185 317/582/185 308/583/185 307/584/185
f 307/584/186 308/583/186 312/585/186 311/586/186
f 315/587/187 316/588/187 310/589/187 309/590/187
f 309/590/188 310/589/188 306/591/188 305/592/188
f 313/593/189 315/587/189 309/590/189 305/594/189
f 316/588/190 314/595/190 306/596/190 310/589/190
f 320/597/191 317/598/191 314/595/191 316/588/191
f 319/599/189 318/600/189 315/587/189 313/593/189
f 318/600/192 320/597/192 316/588/192 315/587/192
f 305/601/193 306/602/193 314/603/193 313/604/193
f 311/586/194 312/585/194 320/597/194 318/600/194
f 307/605/195 311/586/195 318/600/195 319/599/195
f 312/585/196 308/606/196 317/598/196 320/597/196
f 313/604/197 314/603/197 317/582/197 319/581/197
o Cube.018_Cube.022
v 23.636059 -2.769875 51.638275
v 23.636059 -0.895594 51.638275
v 28.820854 -2.769875 41.751884
v 28.820854 -1.125185 41.751884
v 27.517952 -2.805886 53.825111
v 27.517952 -0.931605 53.825111
v 32.702751 -2.805886 43.938721
v 32.702751 -1.161196 43.938721
v 25.195343 -2.769875 48.665024
v 25.195343 0.698373 48.665024
v 29.077248 -2.805886 50.851852
v 29.077248 0.662362 50.851852
v 27.581963 0.698373 44.114212
v 31.463860 -2.805886 46.301056
v 27.581963 -2.769875 44.114212
v 31.463860 0.662362 46.301056
vt 0.375000 0.190263
vt 0.625000 0.190263
vt 0.625000 0.250000
vt 0.375000 0.250000
vt 0.625000 0.500000
vt 0.375000 0.500000
vt 0.375000 0.674814
vt 0.625000 0.674814
vt 0.625000 0.750000
vt 0.375000 0.750000
vt 0.625000 1.000000
vt 0.375000 1.000000
vt 0.125000 0.674814
vt 0.125000 0.750000
vt 0.875000 0.674814
vt 0.875000 0.750000
vt 0.625000 0.559737
vt 0.875000 0.559737
vt 0.125000 0.559737
vt 0.375000 0.559737
vt 0.375000 0.000000
vt 0.625000 0.000000
vt 0.625000 0.075186
vt 0.375000 0.075186
vt 0.125000 0.500000
vt 0.875000 0.500000
vn -0.8856 0.0000 -0.4644
vn 0.4908 0.0000 -0.8713
vn 0.8856 0.0000 0.4644
vn -0.4908 0.0000 0.8713
vn -0.0072 -1.0000 -0.0038
vn -0.2041 0.9033 0.3772
vn 0.0072 1.0000 0.0038
vn 0.2830 0.8253 -0.4887
usemtl None
s off
f 335/607/198 333/608/198 324/609/198 323/610/198
f 323/610/199 324/609/199 328/611/199 327/612/199
f 331/613/200 332/614/200 326/615/200 325/616/200
f 325/616/201 326/615/201 322/617/201 321/618/201
f 329/619/202 331/613/202 325/616/202 321/620/202
f 332/614/203 330/621/203 322/622/203 326/615/203
f 336/623/204 333/624/204 330/621/204 332/614/204
f 335/625/202 334/626/202 331/613/202 329/619/202
f 334/626/200 336/623/200 332/614/200 331/613/200
f 321/627/198 322/628/198 330/629/198 329/630/198
f 327/612/200 328/611/200 336/623/200 334/626/200
f 323/631/202 327/612/202 334/626/202 335/625/202
f 328/611/205 324/632/205 333/624/205 336/623/205
f 329/630/198 330/629/198 333/608/198 335/607/198
o Cube.019_Cube.023
v -37.402374 -2.758436 -14.804813
v -37.402374 0.485763 -14.804813
v -39.346077 -2.758436 -19.486795
v -39.346077 0.485763 -19.486795
v -34.975864 -2.758436 -15.878383
v -34.975864 -0.030952 -15.878383
v -36.919563 -2.758436 -20.560364
v -36.919563 -0.030952 -20.560364
vt 0.375000 0.000000
vt 0.625000 0.000000
vt 0.625000 0.250000
vt 0.375000 0.250000
vt 0.625000 0.500000
vt 0.375000 0.500000
vt 0.625000 0.750000
vt 0.375000 0.750000
vt 0.625000 1.000000
vt 0.375000 1.000000
vt 0.125000 0.500000
vt 0.125000 0.750000
vt 0.875000 0.500000
vt 0.875000 0.750000
vn -0.9236 0.0000 0.3834
vn -0.4046 0.0000 -0.9145
vn 0.9236 0.0000 -0.3834
vn 0.4046 0.0000 0.9145
vn 0.0000 -1.0000 0.0000
vn 0.1766 0.9816 -0.0733
usemtl None
s off
f 337/633/206 338/634/206 340/635/206 339/636/206
f 339/636/207 340/635/207 344/637/207 343/638/207
f 343/638/208 344/637/208 342/639/208 341/640/208
f 341/640/209 342/639/209 338/641/209 337/642/209
f 339/643/210 343/638/210 341/640/210 337/644/210
f 344/637/211 340/645/211 338/646/211 342/639/211
o Cube.020_Cube.024
v -37.591171 -2.758436 -24.562294
v -37.591171 0.485763 -24.562294
v -34.876419 -2.758436 -28.019169
v -34.876419 0.485763 -28.019169
v -35.506878 -2.758436 -22.920271
v -35.506878 -0.030952 -22.920271
v -32.733173 -2.758436 -26.454876
v -32.733173 -0.030952 -26.454876
vt 0.375000 0.000000
vt 0.625000 0.000000
vt 0.625000 0.250000
vt 0.375000 0.250000
vt 0.625000 0.500000
vt 0.375000 0.500000
vt 0.625000 0.750000
vt 0.375000 0.750000
vt 0.625000 1.000000
vt 0.375000 1.000000
vt 0.125000 0.500000
vt 0.125000 0.750000
vt 0.875000 0.500000
vt 0.875000 0.750000
vn -0.7865 0.0000 -0.6176
vn 0.5895 0.0000 -0.8077
vn 0.7867 0.0000 0.6173
vn -0.6188 0.0000 0.7855
vn 0.0000 -1.0000 -0.0000
vn 0.1504 0.9816 0.1181
usemtl None
s off
f 345/647/212 346/648/212 348/649/212 347/650/212
f 347/650/213 348/649/213 352/651/213 351/652/213
f 351/652/214 352/651/214 350/653/214 349/654/214
f 349/654/215 350/653/215 346/655/215 345/656/215
f 347/657/216 351/652/216 349/654/216 345/658/216
f 352/651/217 348/659/217 346/660/217 350/653/217
o Cube.021_Cube.025
v 9.240887 3.388069 -5.898081
v 9.240887 11.502821 -5.898081
v 24.624386 3.388069 -5.898079
v 24.624386 11.502821 -5.898079
v 9.240887 3.388069 0.499369
v 9.240887 11.502821 0.499369
v 24.624386 3.388069 0.499369
v 24.624386 11.502821 0.499369
vt 0.375000 0.000000
vt 0.625000 0.000000
vt 0.625000 0.250000
vt 0.375000 0.250000
vt 0.625000 0.500000
vt 0.375000 0.500000
vt 0.625000 0.750000
vt 0.375000 0.750000
vt 0.625000 1.000000
vt 0.375000 1.000000
vt 0.125000 0.500000
vt 0.125000 0.750000
vt 0.875000 0.500000
vt 0.875000 0.750000
vn 0.0000 0.0000 -1.0000
vn 1.0000 0.0000 0.0000
vn 0.0000 0.0000 1.0000
vn -1.0000 0.0000 0.0000
vn 0.0000 -1.0000 0.0000
vn 0.0000 1.0000 0.0000
usemtl None
s off
f 353/661/218 354/662/218 356/663/218 355/664/218
f 355/664/219 356/663/219 360/665/219 359/666/219
f 359/666/220 360/665/220 358/667/220 357/668/220
f 357/668/221 358/667/221 354/669/221 353/670/221
f 355/671/222 359/666/222 357/668/222 353/672/222
f 360/665/223 356/673/223 354/674/223 358/667/223
o Cube.022_Cube.026
v 9.240887 -3.340921 -5.904371
v 9.240887 11.502821 -5.904371
v 24.624386 -3.340921 -5.904369
v 24.624386 11.502821 -5.904369
v 9.240887 -3.340921 -5.347586
v 9.240887 11.502821 -5.347586
v 24.624386 -3.340921 -5.347584
v 24.624386 11.502821 -5.347584
vt 0.375000 0.000000
vt 0.625000 0.000000
vt 0.625000 0.250000
vt 0.375000 0.250000
vt 0.625000 0.500000
vt 0.375000 0.500000
vt 0.625000 0.750000
vt 0.375000 0.750000
vt 0.625000 1.000000
vt 0.375000 1.000000
vt 0.125000 0.500000
vt 0.125000 0.750000
vt 0.875000 0.500000
vt 0.875000 0.750000
vn 0.0000 0.0000 -1.0000
vn 1.0000 0.0000 0.0000
vn -0.0000 0.0000 1.0000
vn -1.0000 0.0000 0.0000
vn 0.0000 -1.0000 0.0000
vn 0.0000 1.0000 0.0000
usemtl None
s off
f 361/675/224 362/676/224 364/677/224 363/678/224
f 363/678/225 364/677/225 368/679/225 367/680/225
f 367/680/226 368/679/226 366/681/226 365/682/226
f 365/682/227 366/681/227 362/683/227 361/684/227
f 363/685/228 367/680/228 365/682/228 361/686/228
f 368/679/229 364/687/229 362/688/229 366/681/229
o Cube.023_Cube.027
v 9.240887 -3.340921 -0.060879
v 9.240887 11.502821 -0.060879
v 24.624386 -3.340921 -0.060879
v 24.624386 11.502821 -0.060879
v 9.240887 -3.340921 0.495907
v 9.240887 11.502821 0.495907
v 24.624386 -3.340921 0.495907
v 24.624386 11.502821 0.495907
vt 0.375000 0.000000
vt 0.625000 0.000000
vt 0.625000 0.250000
vt 0.375000 0.250000
vt 0.625000 0.500000
vt 0.375000 0.500000
vt 0.625000 0.750000
vt 0.375000 0.750000
vt 0.625000 1.000000
vt 0.375000 1.000000
vt 0.125000 0.500000
vt 0.125000 0.750000
vt 0.875000 0.500000
vt 0.875000 0.750000
vn 0.0000 0.0000 -1.0000
vn 1.0000 0.0000 0.0000
vn 0.0000 0.0000 1.0000
vn -1.0000 0.0000 0.0000
vn 0.0000 -1.0000 0.0000
vn 0.0000 1.0000 0.0000
usemtl None
s off
f 369/689/230 370/690/230 372/691/230 371/692/230
f 371/692/231 372/691/231 376/693/231 375/694/231
f 375/694/232 376/693/232 374/695/232 373/696/232
f 373/696/233 374/695/233 370/697/233 369/698/233
f 371/699/234 375/694/234 373/696/234 369/700/234
f 376/693/235 372/701/235 370/702/235 374/695/235
o Cube.024_Cube.028
v 23.981026 -3.345612 -5.898079
v 23.981026 4.769140 -5.898079
v 24.624386 -3.345612 -5.898079
v 24.624386 4.769140 -5.898079
v 23.981026 -3.345612 0.499369
v 23.981026 4.769140 0.499369
v 24.624386 -3.345612 0.499369
v 24.624386 4.769140 0.499369
vt 0.375000 0.000000
vt 0.625000 0.000000
vt 0.625000 0.250000
vt 0.375000 0.250000
vt 0.625000 0.500000
vt 0.375000 0.500000
vt 0.625000 0.750000
vt 0.375000 0.750000
vt 0.625000 1.000000
vt 0.375000 1.000000
vt 0.125000 0.500000
vt 0.125000 0.750000
vt 0.875000 0.500000
vt 0.875000 0.750000
vn 0.0000 0.0000 -1.0000
vn 1.0000 0.0000 0.0000
vn 0.0000 0.0000 1.0000
vn -1.0000 0.0000 0.0000
vn 0.0000 -1.0000 0.0000
vn 0.0000 1.0000 0.0000
usemtl None
s off
f 377/703/236 378/704/236 380/705/236 379/706/236
f 379/706/237 380/705/237 384/707/237 383/708/237
f 383/708/238 384/707/238 382/709/238 381/710/238
f 381/710/239 382/709/239 378/711/239 377/712/239
f 379/713/240 383/708/240 381/710/240 377/714/240
f 384/707/241 380/715/241 378/716/241 382/709/241
o Cube.025_Cube.029
v -4.601112 3.198540 57.179234
v -4.601112 3.996431 57.179234
v -4.601112 3.198540 51.225407
v -4.601112 3.996431 51.225407
v 10.417819 3.198540 57.179234
v 10.417819 3.996431 57.179234
v 10.417819 3.198540 51.225407
v 10.417819 3.996431 51.225407
vt 0.375000 0.000000
vt 0.625000 0.000000
vt 0.625000 0.250000
vt 0.375000 0.250000
vt 0.625000 0.500000
vt 0.375000 0.500000
vt 0.625000 0.750000
vt 0.375000 0.750000
vt 0.625000 1.000000
vt 0.375000 1.000000
vt 0.125000 0.500000
vt 0.125000 0.750000
vt 0.875000 0.500000
vt 0.875000 0.750000
vn -1.0000 0.0000 0.0000
vn 0.0000 0.0000 -1.0000
vn 1.0000 0.0000 0.0000
vn 0.0000 0.0000 1.0000
vn 0.0000 -1.0000 0.0000
vn 0.0000 1.0000 0.0000
usemtl None
s off
f 385/717/242 386/718/242 388/719/242 387/720/242
f 387/720/243 388/719/243 392/721/243 391/722/243
f 391/722/244 392/721/244 390/723/244 389/724/244
f 389/724/245 390/723/245 386/725/245 385/726/245
f 387/727/246 391/722/246 389/724/246 385/728/246
f 392/721/247 388/729/247 386/730/247 390/723/247
o Cube.026_Cube.030
v -4.601112 -3.917358 57.593281
v -4.601112 3.996431 57.593281
v -4.601112 -3.917358 57.142887
v -4.601112 3.996431 57.142887
v 10.417819 -3.917358 57.593281
v 10.417819 3.996431 57.593281
v 10.417819 -3.917358 57.142887
v 10.417819 3.996431 57.142887
vt 0.375000 0.000000
vt 0.625000 0.000000
vt 0.625000 0.250000
vt 0.375000 0.250000
vt 0.625000 0.500000
vt 0.375000 0.500000
vt 0.625000 0.750000
vt 0.375000 0.750000
vt 0.625000 1.000000
vt 0.375000 1.000000
vt 0.125000 0.500000
vt 0.125000 0.750000
vt 0.875000 0.500000
vt 0.875000 0.750000
vn -1.0000 0.0000 0.0000
vn 0.0000 0.0000 -1.0000
vn 1.0000 0.0000 0.0000
vn 0.0000 0.0000 1.0000
vn 0.0000 -1.0000 0.0000
vn 0.0000 1.0000 0.0000
usemtl None
s off
f 393/731/248 394/732/248 396/733/248 395/734/248
f 395/734/249 396/733/249 400/735/249 399/736/249
f 399/736/250 400/735/250 398/737/250 397/738/250
f 397/738/251 398/737/251 394/739/251 393/740/251
f 395/741/252 399/736/252 397/738/252 393/742/252
f 400/735/253 396/743/253 394/744/253 398/737/253
o Cube.027_Cube.031
v -4.601112 -3.917358 51.630424
v -4.601112 3.996431 51.630424
v -4.601112 -3.917358 51.180031
v -4.601112 3.996431 51.180031
v 10.417819 -3.917358 51.630424
v 10.417819 3.996431 51.630424
v 10.417819 -3.917358 51.180031
v 10.417819 3.996431 51.180031
vt 0.375000 0.000000
vt 0.625000 0.000000
vt 0.625000 0.250000
vt 0.375000 0.250000
vt 0.625000 0.500000
vt 0.375000 0.500000
vt 0.625000 0.750000
vt 0.375000 0.750000
vt 0.625000 1.000000
vt 0.375000 1.000000
vt 0.125000 0.500000
vt 0.125000 0.750000
vt 0.875000 0.500000
vt 0.875000 0.750000
vn -1.0000 0.0000 0.0000
vn 0.0000 0.0000 -1.0000
vn 1.0000 0.0000 0.0000
vn 0.0000 0.0000 1.0000
vn 0.0000 -1.0000 0.0000
vn 0.0000 1.0000 0.0000
usemtl None
s off
f 401/745/254 402/746/254 404/747/254 403/748/254
f 403/748/255 404/747/255 408/749/255 407/750/255
f 407/750/256 408/749/256 406/751/256 405/752/256
f 405/752/257 406/751/257 402/753/257 401/754/257
f 403/755/258 407/750/258 405/752/258 401/756/258
f 408/749/259 404/757/259 402/758/259 406/751/259
o Cube.028_Cube.032
v -32.033131 -6.000823 20.256725
v -32.033131 4.039843 20.256725
v -32.033131 -6.000823 5.071934
v -32.033131 4.039843 5.071934
v -25.502203 -6.000823 20.256725
v -25.502203 4.039843 20.256725
v -25.502203 -6.000823 5.071934
v -25.502203 4.039843 5.071934
vt 0.375000 0.000000
vt 0.625000 0.000000
vt 0.625000 0.250000
vt 0.375000 0.250000
vt 0.625000 0.500000
vt 0.375000 0.500000
vt 0.625000 0.750000
vt 0.375000 0.750000
vt 0.625000 1.000000
vt 0.375000 1.000000
vt 0.125000 0.500000
vt 0.125000 0.750000
vt 0.875000 0.500000
vt 0.875000 0.750000
vn -1.0000 0.0000 0.0000
vn 0.0000 0.0000 -1.0000
vn 1.0000 0.0000 0.0000
vn 0.0000 0.0000 1.0000
vn 0.0000 -1.0000 0.0000
vn 0.0000 1.0000 0.0000
usemtl None
s off
f 409/759/260 410/760/260 412/761/260 411/762/260
f 411/762/261 412/761/261 416/763/261 415/764/261
f 415/764/262 416/763/262 414/765/262 413/766/262
f 413/766/263 414/765/263 410/767/263 409/768/263
f 411/769/264 415/764/264 413/766/264 409/770/264
f 416/763/265 412/771/265 410/772/265 414/765/265
o Cube.029_Cube.033
v -43.148701 -2.887862 10.574017
v -43.148701 4.090489 10.574017
v -42.781208 -2.887862 3.705418
v -42.781208 4.090489 3.705418
v -41.024345 -2.887862 11.144821
v -41.024345 4.090489 11.144821
v -38.623405 -2.887862 5.305244
v -38.623405 4.090489 5.305244
vt 0.375000 0.000000
vt 0.625000 0.000000
vt 0.625000 0.250000
vt 0.375000 0.250000
vt 0.625000 0.500000
vt 0.375000 0.500000
vt 0.625000 0.750000
vt 0.375000 0.750000
vt 0.625000 1.000000
vt 0.375000 1.000000
vt 0.125000 0.500000
vt 0.125000 0.750000
vt 0.875000 0.500000
vt 0.875000 0.750000
vn -0.9986 0.0000 -0.0534
vn 0.3591 0.0000 -0.9333
vn 0.9249 0.0000 0.3803
vn -0.2595 0.0000 0.9657
vn 0.0000 -1.0000 0.0000
vn 0.0000 1.0000 0.0000
usemtl None
s off
f 417/773/266 418/774/266 420/775/266 419/776/266
f 419/776/267 420/775/267 424/777/267 423/778/267
f 423/778/268 424/777/268 422/779/268 421/780/268
f 421/780/269 422/779/269 418/781/269 417/782/269
f 419/783/270 423/778/270 421/780/270 417/784/270
f 424/777/271 420/785/271 418/786/271 422/779/271
o Cube.030_Cube.034
v -34.091389 -2.887862 10.574017
v -34.091389 4.090489 10.574017
v -31.531410 -2.887862 3.705418
v -31.531410 4.090489 3.705418
v -31.967035 -2.887862 11.144821
v -31.967035 4.090489 11.144821
v -30.078892 -2.887862 5.305244
v -30.078892 4.090489 5.305244
vt 0.375000 0.000000
vt 0.625000 0.000000
vt 0.625000 0.250000
vt 0.375000 0.250000
vt 0.625000 0.500000
vt 0.375000 0.500000
vt 0.625000 0.750000
vt 0.375000 0.750000
vt 0.625000 1.000000
vt 0.375000 1.000000
vt 0.125000 0.500000
vt 0.125000 0.750000
vt 0.875000 0.500000
vt 0.875000 0.750000
vn -0.9370 0.0000 -0.3492
vn 0.7404 0.0000 -0.6722
vn 0.9515 0.0000 0.3077
vn -0.2595 0.0000 0.9657
vn 0.0000 -1.0000 -0.0000
vn 0.0000 1.0000 0.0000
usemtl None
s off
f 425/787/272 426/788/272 428/789/272 427/790/272
f 427/790/273 428/789/273 432/791/273 431/792/273
f 431/792/274 432/791/274 430/793/274 429/794/274
f 429/794/275 430/793/275 426/795/275 425/796/275
f 427/797/276 431/792/276 429/794/276 425/798/276
f 432/791/277 428/799/277 426/800/277 430/793/277
o Cube.031_Cube.035
v -42.294052 -2.987726 14.607645
v -42.294052 4.016011 14.607645
v -36.962151 -2.803463 0.417904
v -36.962151 4.016011 0.417904
v -41.798912 -2.987726 14.768599
v -41.798912 4.016011 14.768599
v -36.467014 -2.803463 0.578857
v -36.467014 4.016011 0.578857
vt 0.375000 0.000000
vt 0.625000 0.000000
vt 0.625000 0.250000
vt 0.375000 0.250000
vt 0.625000 0.500000
vt 0.375000 0.500000
vt 0.625000 0.750000
vt 0.375000 0.750000
vt 0.625000 1.000000
vt 0.375000 1.000000
vt 0.125000 0.500000
vt 0.125000 0.750000
vt 0.875000 0.500000
vt 0.875000 0.750000
vn -0.9361 0.0000 -0.3517
vn 0.3091 0.0000 -0.9510
vn 0.9361 0.0000 0.3517
vn -0.3091 0.0000 0.9510
vn 0.0038 -0.9999 -0.0116
vn 0.0000 1.0000 -0.0000
usemtl None
s off
f 433/801/278 434/802/278 436/803/278 435/804/278
f 435/804/279 436/803/279 440/805/279 439/806/279
f 439/806/280 440/805/280 438/807/280 437/808/280
f 437/808/281 438/807/281 434/809/281 433/810/281
f 435/811/282 439/806/282 437/808/282 433/812/282
f 440/805/283 436/813/283 434/814/283 438/807/283
o Cube.032_Cube.036
v -42.294510 3.212190 14.573143
v -42.294510 3.978370 14.573143
v -36.847672 3.212190 0.427120
v -36.847672 3.978370 0.427120
v -36.336781 3.212190 16.790257
v -36.336781 3.978370 16.790257
v -30.889944 3.212190 2.644234
v -30.889944 3.978370 2.644234
vt 0.375000 0.000000
vt 0.625000 0.000000
vt 0.625000 0.250000
vt 0.375000 0.250000
vt 0.625000 0.500000
vt 0.375000 0.500000
vt 0.625000 0.750000
vt 0.375000 0.750000
vt 0.625000 1.000000
vt 0.375000 1.000000
vt 0.125000 0.500000
vt 0.125000 0.750000
vt 0.875000 0.500000
vt 0.875000 0.750000
vn -0.9332 0.0000 -0.3593
vn 0.3488 0.0000 -0.9372
vn 0.9332 0.0000 0.3593
vn -0.3488 0.0000 0.9372
vn 0.0000 -1.0000 -0.0000
vn 0.0000 1.0000 0.0000
usemtl None
s off
f 441/815/284 442/816/284 444/817/284 443/818/284
f 443/818/285 444/817/285 448/819/285 447/820/285
f 447/820/286 448/819/286 446/821/286 445/822/286
f 445/822/287 446/821/287 442/823/287 441/824/287
f 443/825/288 447/820/288 445/822/288 441/826/288
f 448/819/289 444/827/289 442/828/289 446/821/289
o Cube.033_Cube.037
v -36.767757 -2.832545 16.629642
v -36.767757 3.959407 16.629642
v -31.320917 -2.648283 2.483620
v -31.320917 3.959407 2.483620
v -36.337429 -2.832545 16.794094
v -36.337429 3.959407 16.794094
v -30.890593 -2.648283 2.648071
v -30.890593 3.959407 2.648071
vt 0.375000 0.000000
vt 0.625000 0.000000
vt 0.625000 0.250000
vt 0.375000 0.250000
vt 0.625000 0.500000
vt 0.375000 0.500000
vt 0.625000 0.750000
vt 0.375000 0.750000
vt 0.625000 1.000000
vt 0.375000 1.000000
vt 0.125000 0.500000
vt 0.125000 0.750000
vt 0.875000 0.500000
vt 0.875000 0.750000
vn -0.9332 0.0000 -0.3593
vn 0.3570 0.0000 -0.9341
vn 0.9332 0.0000 0.3593
vn -0.3570 0.0000 0.9341
vn 0.0043 -0.9999 -0.0114
vn 0.0000 1.0000 0.0000
usemtl None
s off
f 449/829/290 450/830/290 452/831/290 451/832/290
f 451/832/291 452/831/291 456/833/291 455/834/291
f 455/834/292 456/833/292 454/835/292 453/836/292
f 453/836/293 454/835/293 450/837/293 449/838/293
f 451/839/294 455/834/294 453/836/294 449/840/294
f 456/833/295 452/841/295 450/842/295 454/835/295
o Cube.035_Cube.039
v 39.593220 -3.907753 19.970270
v 39.593220 4.006036 19.970270
v 33.138165 -3.907753 19.983284
v 33.138165 4.006036 19.983284
v 39.562656 -3.907753 4.812723
v 39.562656 4.006036 4.812723
v 33.107601 -3.907753 4.825737
v 33.107601 4.006036 4.825737
vt 0.375000 0.000000
vt 0.625000 0.000000
vt 0.625000 0.250000
vt 0.375000 0.250000
vt 0.625000 0.500000
vt 0.375000 0.500000
vt 0.625000 0.750000
vt 0.375000 0.750000
vt 0.625000 1.000000
vt 0.375000 1.000000
vt 0.125000 0.500000
vt 0.125000 0.750000
vt 0.875000 0.500000
vt 0.875000 0.750000
vn 0.0020 0.0000 1.0000
vn -1.0000 0.0000 0.0020
vn -0.0020 0.0000 -1.0000
vn 1.0000 0.0000 -0.0020
vn 0.0000 -1.0000 -0.0000
vn 0.0000 1.0000 -0.0000
usemtl None
s off
f 457/843/296 458/844/296 460/845/296 459/846/296
f 459/846/297 460/845/297 464/847/297 463/848/297
f 463/848/298 464/847/298 462/849/298 461/850/298
f 461/850/299 462/849/299 458/851/299 457/852/299
f 459/853/300 463/848/300 461/850/300 457/854/300
f 464/847/301 460/855/301 458/856/301 462/849/301
o Cube.036_Cube.040
v -4.739758 -3.907753 -26.964634
v -4.739758 4.006036 -26.964634
v -4.739758 -3.907753 -33.419701
v -4.739758 4.006036 -33.419701
v 10.417819 -3.907753 -26.964634
v 10.417819 4.006036 -26.964634
v 10.417819 -3.907753 -33.419701
v 10.417819 4.006036 -33.419701
vt 0.375000 0.000000
vt 0.625000 0.000000
vt 0.625000 0.250000
vt 0.375000 0.250000
vt 0.625000 0.500000
vt 0.375000 0.500000
vt 0.625000 0.750000
vt 0.375000 0.750000
vt 0.625000 1.000000
vt 0.375000 1.000000
vt 0.125000 0.500000
vt 0.125000 0.750000
vt 0.875000 0.500000
vt 0.875000 0.750000
vn -1.0000 0.0000 0.0000
vn 0.0000 0.0000 -1.0000
vn 1.0000 0.0000 0.0000
vn 0.0000 0.0000 1.0000
vn 0.0000 -1.0000 0.0000
vn 0.0000 1.0000 0.0000
usemtl None
s off
f 465/857/302 466/858/302 468/859/302 467/860/302
f 467/860/303 468/859/303 472/861/303 471/862/303
f 471/862/304 472/861/304 470/863/304 469/864/304
f 469/864/305 470/863/305 466/865/305 465/866/305
f 467/867/306 471/862/306 469/864/306 465/868/306
f 472/861/307 468/869/307 466/870/307 470/863/307
o Cube.037_Cube.041
v -4.739758 -3.907753 -26.446381
v -4.739758 4.006036 -26.446381
v -4.739758 -3.907753 -27.017761
v -4.739758 4.006036 -27.017761
v 10.417819 -3.907753 -26.446381
v 10.417819 4.006036 -26.446381
v 10.417819 -3.907753 -27.017761
v 10.417819 4.006036 -27.017761
vt 0.375000 0.000000
vt 0.625000 0.000000
vt 0.625000 0.250000
vt 0.375000 0.250000
vt 0.625000 0.500000
vt 0.375000 0.500000
vt 0.625000 0.750000
vt 0.375000 0.750000
vt 0.625000 1.000000
vt 0.375000 1.000000
vt 0.125000 0.500000
vt 0.125000 0.750000
vt 0.875000 0.500000
vt 0.875000 0.750000
vn -1.0000 0.0000 0.0000
vn 0.0000 0.0000 -1.0000
vn 1.0000 0.0000 0.0000
vn 0.0000 0.0000 1.0000
vn 0.0000 -1.0000 0.0000
vn 0.0000 1.0000 0.0000
usemtl None
s off
f 473/871/308 474/872/308 476/873/308 475/874/308
f 475/874/309 476/873/309 480/875/309 479/876/309
f 479/876/310 480/875/310 478/877/310 477/878/310
f 477/878/311 478/877/311 474/879/311 473/880/311
f 475/881/312 479/876/312 477/878/312 473/882/312
f 480/875/313 476/883/313 474/884/313 478/877/313
o Cube.038_Cube.042
v -4.739758 3.275105 -20.491577
v -4.739758 4.006036 -20.491577
v -4.739758 3.275105 -27.087259
v -4.739758 4.006036 -27.087259
v 10.417819 3.275105 -20.491577
v 10.417819 4.006036 -20.491577
v 10.417819 3.275105 -27.087259
v 10.417819 4.006036 -27.087259
vt 0.375000 0.000000
vt 0.625000 0.000000
vt 0.625000 0.250000
vt 0.375000 0.250000
vt 0.625000 0.500000
vt 0.375000 0.500000
vt 0.625000 0.750000
vt 0.375000 0.750000
vt 0.625000 1.000000
vt 0.375000 1.000000
vt 0.125000 0.500000
vt 0.125000 0.750000
vt 0.875000 0.500000
vt 0.875000 0.750000
vn -1.0000 0.0000 0.0000
vn 0.0000 0.0000 -1.0000
vn 1.0000 0.0000 0.0000
vn 0.0000 0.0000 1.0000
vn 0.0000 -1.0000 0.0000
vn 0.0000 1.0000 0.0000
usemtl None
s off
f 481/885/314 482/886/314 484/887/314 483/888/314
f 483/888/315 484/887/315 488/889/315 487/890/315
f 487/890/316 488/889/316 486/891/316 485/892/316
f 485/892/317 486/891/317 482/893/317 481/894/317
f 483/895/318 487/890/318 485/892/318 481/896/318
f 488/889/319 484/897/319 482/898/319 486/891/319
o Cube.039_Cube.043
v -4.739758 -3.907753 -20.464499
v -4.739758 4.006036 -20.464499
v -4.739758 -3.907753 -21.035879
v -4.739758 4.006036 -21.035879
v 10.417819 -3.907753 -20.464499
v 10.417819 4.006036 -20.464499
v 10.417819 -3.907753 -21.035879
v 10.417819 4.006036 -21.035879
vt 0.375000 0.000000
vt 0.625000 0.000000
vt 0.625000 0.250000
vt 0.375000 0.250000
vt 0.625000 0.500000
vt 0.375000 0.500000
vt 0.625000 0.750000
vt 0.375000 0.750000
vt 0.625000 1.000000
vt 0.375000 1.000000
vt 0.125000 0.500000
vt 0.125000 0.750000
vt 0.875000 0.500000
vt 0.875000 0.750000
vn -1.0000 0.0000 0.0000
vn 0.0000 0.0000 -1.0000
vn 1.0000 0.0000 0.0000
vn 0.0000 0.0000 1.0000
vn 0.0000 -1.0000 0.0000
vn 0.0000 1.0000 0.0000
usemtl None
s off
f 489/899/320 490/900/320 492/901/320 491/902/320
f 491/902/321 492/901/321 496/903/321 495/904/321
f 495/904/322 496/903/322 494/905/322 493/906/322
f 493/906/323 494/905/323 490/907/323 489/908/323
f 491/909/324 495/904/324 493/906/324 489/910/324
f 496/903/325 492/911/325 490/912/325 494/905/325
o Cube.041_Cube.045
v 42.646240 3.195139 20.690090
v 42.646240 3.937850 20.690090
v 39.679436 3.195139 5.676826
v 39.679436 3.937850 5.676826
v 49.034401 3.195139 19.192081
v 49.034401 3.937850 19.192081
v 45.942051 3.195139 4.441831
v 45.942051 3.937850 4.441831
vt 0.375000 0.000000
vt 0.625000 0.000000
vt 0.625000 0.250000
vt 0.375000 0.250000
vt 0.625000 0.500000
vt 0.375000 0.500000
vt 0.625000 0.750000
vt 0.375000 0.750000
vt 0.625000 1.000000
vt 0.375000 1.000000
vt 0.125000 0.500000
vt 0.125000 0.750000
vt 0.875000 0.500000
vt 0.875000 0.750000
vn -0.9810 0.0000 0.1939
vn -0.1935 0.0000 -0.9811
vn 0.9787 0.0000 -0.2052
vn 0.2283 0.0000 0.9736
vn 0.0000 -1.0000 0.0000
vn 0.0000 1.0000 0.0000
usemtl None
s off
f 497/913/326 498/914/326 500/915/326 499/916/326
f 499/916/327 500/915/327 504/917/327 503/918/327
f 503/918/328 504/917/328 502/919/328 501/920/328
f 501/920/329 502/919/329 498/921/329 497/922/329
f 499/923/330 503/918/330 501/920/330 497/924/330
f 504/917/331 500/925/331 498/926/331 502/919/331
o Cube.042_Cube.046
v 48.382858 -2.875814 19.314596
v 48.382858 3.921975 19.314596
v 45.433689 -2.875814 4.565850
v 45.433689 3.921975 4.565850
v 49.034401 -2.875814 19.192081
v 49.034401 3.921975 19.192081
v 45.942051 -2.875814 4.441831
v 45.942051 3.921975 4.441831
vt 0.375000 0.000000
vt 0.625000 0.000000
vt 0.625000 0.250000
vt 0.375000 0.250000
vt 0.625000 0.500000
vt 0.375000 0.500000
vt 0.625000 0.750000
vt 0.375000 0.750000
vt 0.625000 1.000000
vt 0.375000 1.000000
vt 0.125000 0.500000
vt 0.125000 0.750000
vt 0.875000 0.500000
vt 0.875000 0.750000
vn -0.9806 0.0000 0.1961
vn -0.2370 0.0000 -0.9715
vn 0.9787 0.0000 -0.2052
vn 0.1848 0.0000 0.9828
vn 0.0000 -1.0000 0.0000
vn 0.0000 1.0000 0.0000
usemtl None
s off
f 505/927/332 506/928/332 508/929/332 507/930/332
f 507/930/333 508/929/333 512/931/333 511/932/333
f 511/932/334 512/931/334 510/933/334 509/934/334
f 509/934/335 510/933/335 506/935/335 505/936/335
f 507/937/336 511/932/336 509/934/336 505/938/336
f 512/931/337 508/939/337 506/940/337 510/933/337
o Cube.043_Cube.047
v 42.581093 -2.875814 20.734303
v 42.581093 3.844427 20.734303
v 39.631920 -2.875814 5.747365
v 39.631920 3.844427 5.747365
v 43.232635 -2.875814 20.630615
v 43.232635 3.844427 20.630615
v 40.140285 -2.875814 5.623345
v 40.140285 3.844427 5.623345
vt 0.375000 0.000000
vt 0.625000 0.000000
vt 0.625000 0.250000
vt 0.375000 0.250000
vt 0.625000 0.500000
vt 0.375000 0.500000
vt 0.625000 0.750000
vt 0.375000 0.750000
vt 0.625000 1.000000
vt 0.375000 1.000000
vt 0.125000 0.500000
vt 0.125000 0.750000
vt 0.875000 0.500000
vt 0.875000 0.750000
vn -0.9812 0.0000 0.1931
vn -0.2370 0.0000 -0.9715
vn 0.9794 0.0000 -0.2018
vn 0.1572 0.0000 0.9876
vn 0.0000 -1.0000 0.0000
vn 0.0000 1.0000 0.0000
usemtl None
s off
f 513/941/338 514/942/338 516/943/338 515/944/338
f 515/944/339 516/943/339 520/945/339 519/946/339
f 519/946/340 520/945/340 518/947/340 517/948/340
f 517/948/341 518/947/341 514/949/341 513/950/341
f 515/951/342 519/946/342 517/948/342 513/952/342
f 520/945/343 516/953/343 514/954/343 518/947/343
o Cube.044_Cube.048
v -43.235352 -3.538171 -33.141689
v -43.235352 31.859686 -33.141689
v -43.235352 -3.538171 -35.141689
v -43.235352 31.859686 -35.141689
v 49.511532 -3.538171 -33.141689
v 49.511532 31.859686 -33.141689
v 49.511532 -3.538171 -35.141689
v 49.511532 31.859686 -35.141689
vt 0.375000 0.000000
vt 0.625000 0.000000
vt 0.625000 0.250000
vt 0.375000 0.250000
vt 0.625000 0.500000
vt 0.375000 0.500000
vt 0.625000 0.750000
vt 0.375000 0.750000
vt 0.625000 1.000000
vt 0.375000 1.000000
vt 0.125000 0.500000
vt 0.125000 0.750000
vt 0.875000 0.500000
vt 0.875000 0.750000
vn -1.0000 0.0000 0.0000
vn 0.0000 0.0000 -1.0000
vn 1.0000 0.0000 0.0000
vn 0.0000 0.0000 1.0000
vn 0.0000 -1.0000 0.0000
vn 0.0000 1.0000 0.0000
usemtl None
s off
f 521/955/344 522/956/344 524/957/344 523/958/344
f 523/958/345 524/957/345 528/959/345 527/960/345
f 527/960/346 528/959/346 526/961/346 525/962/346
f 525/962/347 526/961/347 522/963/347 521/964/347
f 523/965/348 527/960/348 525/962/348 521/966/348
f 528/959/349 524/967/349 522/968/349 526/961/349
o Cube.045_Cube.049
v -41.894360 -3.538168 58.921066
v -41.894360 31.859684 58.921066
v -43.743130 -3.538168 58.921066
v -43.743130 31.859684 58.921066
v -41.894363 -3.538168 -35.858646
v -41.894363 31.859684 -35.858646
v -43.743134 -3.538168 -35.858646
v -43.743134 31.859684 -35.858646
vt 0.375000 0.000000
vt 0.625000 0.000000
vt 0.625000 0.250000
vt 0.375000 0.250000
vt 0.625000 0.500000
vt 0.375000 0.500000
vt 0.625000 0.750000
vt 0.375000 0.750000
vt 0.625000 1.000000
vt 0.375000 1.000000
vt 0.125000 0.500000
vt 0.125000 0.750000
vt 0.875000 0.500000
vt 0.875000 0.750000
vn 0.0000 0.0000 1.0000
vn -1.0000 0.0000 0.0000
vn 0.0000 0.0000 -1.0000
vn 1.0000 0.0000 -0.0000
vn 0.0000 -1.0000 0.0000
vn 0.0000 1.0000 -0.0000
usemtl None
s off
f 529/969/350 530/970/350 532/971/350 531/972/350
f 531/972/351 532/971/351 536/973/351 535/974/351
f 535/974/352 536/973/352 534/975/352 533/976/352
f 533/976/353 534/975/353 530/977/353 529/978/353
f 531/979/354 535/974/354 533/976/354 529/980/354
f 536/973/355 532/981/355 530/982/355 534/975/355
o Cube.046_Cube.050
v 50.521244 -3.538168 58.921066
v 50.521244 31.859684 58.921066
v 48.672474 -3.538168 58.921066
v 48.672474 31.859684 58.921066
v 50.521240 -3.538168 -35.858646
v 50.521240 31.859684 -35.858646
v 48.672470 -3.538168 -35.858646
v 48.672470 31.859684 -35.858646
vt 0.375000 0.000000
vt 0.625000 0.000000
vt 0.625000 0.250000
vt 0.375000 0.250000
vt 0.625000 0.500000
vt 0.375000 0.500000
vt 0.625000 0.750000
vt 0.375000 0.750000
vt 0.625000 1.000000
vt 0.375000 1.000000
vt 0.125000 0.500000
vt 0.125000 0.750000
vt 0.875000 0.500000
vt 0.875000 0.750000
vn 0.0000 0.0000 1.0000
vn -1.0000 0.0000 0.0000
vn 0.0000 0.0000 -1.0000
vn 1.0000 0.0000 -0.0000
vn 0.0000 -1.0000 0.0000
vn 0.0000 1.0000 -0.0000
usemtl None
s off
f 537/983/356 538/984/356 540/985/356 539/986/356
f 539/986/357 540/985/357 544/987/357 543/988/357
f 543/988/358 544/987/358 542/989/358 541/990/358
f 541/990/359 542/989/359 538/991/359 537/992/359
f 539/993/360 543/988/360 541/990/360 537/994/360
f 544/987/361 540/995/361 538/996/361 542/989/361
o Cube.047_Cube.051
v -43.235352 -3.538171 59.380127
v -43.235352 31.859686 59.380127
v -43.235352 -3.538171 57.380127
v -43.235352 31.859686 57.380127
v 49.511532 -3.538171 59.380127
v 49.511532 31.859686 59.380127
v 49.511532 -3.538171 57.380127
v 49.511532 31.859686 57.380127
vt 0.375000 0.000000
vt 0.625000 0.000000
vt 0.625000 0.250000
vt 0.375000 0.250000
vt 0.625000 0.500000
vt 0.375000 0.500000
vt 0.625000 0.750000
vt 0.375000 0.750000
vt 0.625000 1.000000
vt 0.375000 1.000000
vt 0.125000 0.500000
vt 0.125000 0.750000
vt 0.875000 0.500000
vt 0.875000 0.750000
vn -1.0000 0.0000 0.0000
vn 0.0000 0.0000 -1.0000
vn 1.0000 0.0000 0.0000
vn 0.0000 0.0000 1.0000
vn 0.0000 -1.0000 0.0000
vn 0.0000 1.0000 0.0000
usemtl None
s off
f 545/997/362 546/998/362 548/999/362 547/1000/362
f 547/1000/363 548/999/363 552/1001/363 551/1002/363
f 551/1002/364 552/1001/364 550/1003/364 549/1004/364
f 549/1004/365 550/1003/365 546/1005/365 545/1006/365
f 547/1007/366 551/1002/366 549/1004/366 545/1008/366
f 552/1001/367 548/1009/367 546/1010/367 550/1003/367
o Cube.048_Cube.002
v 9.280490 -3.345612 -5.898079
v 9.280490 4.769140 -5.898079
v 9.923850 -3.345612 -5.898079
v 9.923850 4.769140 -5.898079
v 9.280488 -3.345612 -2.665268
v 9.280488 4.769140 -2.665268
v 9.923848 -3.345612 -2.665268
v 9.923848 4.769140 -2.665268
vt 0.375000 0.000000
vt 0.625000 0.000000
vt 0.625000 0.250000
vt 0.375000 0.250000
vt 0.625000 0.500000
vt 0.375000 0.500000
vt 0.625000 0.750000
vt 0.375000 0.750000
vt 0.625000 1.000000
vt 0.375000 1.000000
vt 0.125000 0.500000
vt 0.125000 0.750000
vt 0.875000 0.500000
vt 0.875000 0.750000
vn 0.0000 0.0000 -1.0000
vn 1.0000 0.0000 0.0000
vn 0.0000 0.0000 1.0000
vn -1.0000 0.0000 -0.0000
vn 0.0000 -1.0000 -0.0000
vn 0.0000 1.0000 0.0000
usemtl None
s off
f 553/1011/368 554/1012/368 556/1013/368 555/1014/368
f 555/1014/369 556/1013/369 560/1015/369 559/1016/369
f 559/1016/370 560/1015/370 558/1017/370 557/1018/370
f 557/1018/371 558/1017/371 554/1019/371 553/1020/371
f 555/1021/372 559/1016/372 557/1018/372 553/1022/372
f 560/1015/373 556/1023/373 554/1024/373 558/1017/373
o Cube.049_Cube.052
v 9.795887 -4.113822 -23.850674
v 9.795887 4.000930 -23.850674
v 10.439247 -4.113822 -23.850674
v 10.439247 4.000930 -23.850674
v 9.795885 -4.113822 -20.617863
v 9.795885 4.000930 -20.617863
v 10.439245 -4.113822 -20.617863
v 10.439245 4.000930 -20.617863
vt 0.375000 0.000000
vt 0.625000 0.000000
vt 0.625000 0.250000
vt 0.375000 0.250000
vt 0.625000 0.500000
vt 0.375000 0.500000
vt 0.625000 0.750000
vt 0.375000 0.750000
vt 0.625000 1.000000
vt 0.375000 1.000000
vt 0.125000 0.500000
vt 0.125000 0.750000
vt 0.875000 0.500000
vt 0.875000 0.750000
vn 0.0000 0.0000 -1.0000
vn 1.0000 0.0000 0.0000
vn 0.0000 0.0000 1.0000
vn -1.0000 0.0000 -0.0000
vn 0.0000 -1.0000 -0.0000
vn 0.0000 1.0000 0.0000
usemtl None
s off
f 561/1025/374 562/1026/374 564/1027/374 563/1028/374
f 563/1028/375 564/1027/375 568/1029/375 567/1030/375
f 567/1030/376 568/1029/376 566/1031/376 565/1032/376
f 565/1032/377 566/1031/377 562/1033/377 561/1034/377
f 563/1035/378 567/1030/378 565/1032/378 561/1036/378
f 568/1029/379 564/1037/379 562/1038/379 566/1031/379
o Cube.050_Cube.053
v -4.739533 -4.113822 -26.730633
v -4.739533 4.000930 -26.730633
v -4.096173 -4.113822 -26.730633
v -4.096173 4.000930 -26.730633
v -4.739535 -4.113822 -23.497822
v -4.739535 4.000930 -23.497822
v -4.096175 -4.113822 -23.497822
v -4.096175 4.000930 -23.497822
vt 0.375000 0.000000
vt 0.625000 0.000000
vt 0.625000 0.250000
vt 0.375000 0.250000
vt 0.625000 0.500000
vt 0.375000 0.500000
vt 0.625000 0.750000
vt 0.375000 0.750000
vt 0.625000 1.000000
vt 0.375000 1.000000
vt 0.125000 0.500000
vt 0.125000 0.750000
vt 0.875000 0.500000
vt 0.875000 0.750000
vn 0.0000 0.0000 -1.0000
vn 1.0000 0.0000 0.0000
vn 0.0000 0.0000 1.0000
vn -1.0000 0.0000 -0.0000
vn 0.0000 -1.0000 -0.0000
vn 0.0000 1.0000 0.0000
usemtl None
s off
f 569/1039/380 570/1040/380 572/1041/380 571/1042/380
f 571/1042/381 572/1041/381 576/1043/381 575/1044/381
f 575/1044/382 576/1043/382 574/1045/382 573/1046/382
f 573/1046/383 574/1045/383 570/1047/383 569/1048/383
f 571/1049/384 575/1044/384 573/1046/384 569/1050/384
f 576/1043/385 572/1051/385 570/1052/385 574/1045/385
o Cube.051_Cube.054
v -8.487364 -4.113822 57.691322
v -8.487364 4.000930 57.691322
v -6.940323 -4.113822 57.050682
v -6.940323 4.000930 57.050682
v -4.223782 -4.113822 57.394150
v -4.223782 4.000930 57.394150
v -4.282922 -4.113822 56.753513
v -4.282922 4.000930 56.753513
vt 0.375000 0.000000
vt 0.625000 0.000000
vt 0.625000 0.250000
vt 0.375000 0.250000
vt 0.625000 0.500000
vt 0.375000 0.500000
vt 0.625000 0.750000
vt 0.375000 0.750000
vt 0.625000 1.000000
vt 0.375000 1.000000
vt 0.125000 0.500000
vt 0.125000 0.750000
vt 0.875000 0.500000
vt 0.875000 0.750000
vn -0.3826 0.0000 -0.9239
vn -0.1111 0.0000 -0.9938
vn 0.9958 0.0000 -0.0919
vn 0.0695 0.0000 0.9976
vn 0.0000 -1.0000 0.0000
vn 0.0000 1.0000 0.0000
usemtl None
s off
f 577/1053/386 578/1054/386 580/1055/386 579/1056/386
f 579/1056/387 580/1055/387 584/1057/387 583/1058/387
f 583/1058/388 584/1057/388 582/1059/388 581/1060/388
f 581/1060/389 582/1059/389 578/1061/389 577/1062/389
f 579/1063/390 583/1058/390 581/1060/390 577/1064/390
f 584/1057/391 580/1065/391 578/1066/391 582/1059/391
o Cube.052_Cube.055
v 9.236084 -4.113822 50.135521
v 9.236084 4.000930 50.135521
v 8.939531 -4.113822 51.277733
v 8.939531 4.000930 51.277733
v 10.633132 -4.113822 51.648796
v 10.396781 -4.113822 51.719139
v 10.396781 4.000930 51.719139
v 10.633133 4.000930 51.648796
v 12.507569 -4.113822 49.376984
v 12.609127 -4.113822 49.553856
v 12.609127 4.000930 49.553856
v 12.507569 4.000930 49.376984
vt 0.375000 0.276051
vt 0.625000 0.276051
vt 0.625000 0.488804
vt 0.375000 0.488804
vt 0.375000 0.521887
vt 0.625000 0.521887
vt 0.625000 0.750000
vt 0.375000 0.750000
vt 0.625000 1.000000
vt 0.375000 1.000000
vt 0.636196 0.500000
vt 0.848949 0.500000
vt 0.875000 0.523756
vt 0.875000 0.750000
vt 0.375000 0.000000
vt 0.625000 0.000000
vt 0.625000 0.226244
vt 0.375000 0.226244
vt 0.125000 0.523756
vt 0.151051 0.500000
vt 0.363804 0.500000
vt 0.125000 0.750000
vn 0.7275 0.0000 0.6862
vn -0.2899 0.0000 0.9571
vn -0.9679 0.0000 -0.2513
vn 0.0000 1.0000 -0.0000
vn 0.2852 -0.0000 0.9585
vn -0.2259 0.0000 -0.9742
vn 0.8672 0.0000 -0.4979
vn 0.0000 -1.0000 0.0000
usemtl None
s off
f 594/1067/392 595/1068/392 592/1069/392 589/1070/392
f 590/1071/393 591/1072/393 588/1073/393 587/1074/393
f 587/1074/394 588/1073/394 586/1075/394 585/1076/394
f 591/1072/395 592/1077/395 595/1078/395 596/1079/395 586/1080/395 588/1073/395
f 591/1072/396 590/1071/396 589/1070/396 592/1069/396
f 585/1081/397 586/1082/397 596/1083/397 593/1084/397
f 595/1068/398 594/1067/398 593/1084/398 596/1083/398
f 593/1085/399 594/1086/399 589/1087/399 590/1071/399 587/1074/399 585/1088/399
o Cube.053_Cube.056
v 9.802506 -4.113822 53.839848
v 9.802506 4.000930 53.839848
v 10.445867 -4.113822 53.839848
v 10.445867 4.000930 53.839848
v 9.802505 -4.113822 57.072659
v 9.802505 4.000930 57.072659
v 10.445865 -4.113822 57.072659
v 10.445865 4.000930 57.072659
vt 0.375000 0.000000
vt 0.625000 0.000000
vt 0.625000 0.250000
vt 0.375000 0.250000
vt 0.625000 0.500000
vt 0.375000 0.500000
vt 0.625000 0.750000
vt 0.375000 0.750000
vt 0.625000 1.000000
vt 0.375000 1.000000
vt 0.125000 0.500000
vt 0.125000 0.750000
vt 0.875000 0.500000
vt 0.875000 0.750000
vn 0.0000 0.0000 -1.0000
vn 1.0000 0.0000 0.0000
vn 0.0000 0.0000 1.0000
vn -1.0000 0.0000 -0.0000
vn 0.0000 -1.0000 -0.0000
vn 0.0000 1.0000 0.0000
usemtl None
s off
f 597/1089/400 598/1090/400 600/1091/400 599/1092/400
f 599/1092/401 600/1091/401 604/1093/401 603/1094/401
f 603/1094/402 604/1093/402 602/1095/402 601/1096/402
f 601/1096/403 602/1095/403 598/1097/403 597/1098/403
f 599/1099/404 603/1094/404 601/1096/404 597/1100/404
f 604/1093/405 600/1101/405 598/1102/405 602/1095/405
o Cube.054_Cube.057
v 10.336755 -4.113822 53.854862
v 10.336755 0.900676 53.854862
v 13.481567 -4.113822 53.854862
v 13.481567 0.900676 53.854862
v 10.336753 -4.113822 57.623337
v 10.336753 0.900676 57.623337
v 13.481565 -4.113822 57.623337
v 13.481565 0.900676 57.623337
vt 0.375000 0.000000
vt 0.625000 0.000000
vt 0.625000 0.250000
vt 0.375000 0.250000
vt 0.625000 0.500000
vt 0.375000 0.500000
vt 0.625000 0.750000
vt 0.375000 0.750000
vt 0.625000 1.000000
vt 0.375000 1.000000
vt 0.125000 0.500000
vt 0.125000 0.750000
vt 0.875000 0.500000
vt 0.875000 0.750000
vn 0.0000 0.0000 -1.0000
vn 1.0000 0.0000 0.0000
vn 0.0000 0.0000 1.0000
vn -1.0000 0.0000 -0.0000
vn 0.0000 -1.0000 0.0000
vn 0.0000 1.0000 0.0000
usemtl None
s off
f 605/1103/406 606/1104/406 608/1105/406 607/1106/406
f 607/1106/407 608/1105/407 612/1107/407 611/1108/407
f 611/1108/408 612/1107/408 610/1109/408 609/1110/408
f 609/1110/409 610/1109/409 606/1111/409 605/1112/409
f 607/1113/410 611/1108/410 609/1110/410 605/1114/410
f 612/1107/411 608/1115/411 606/1116/411 610/1109/411
o Cube.055_Cube.058
v 39.204239 -5.788492 42.827171
v 39.175987 -0.052197 42.870071
v 42.307186 -5.788492 42.133354
v 42.265324 -0.052197 42.105148
v 39.721485 -5.788492 46.111649
v 39.763344 -0.052197 46.139858
v 43.108414 -5.788492 45.465645
v 43.136665 -0.052197 45.422745
vt 0.375000 0.000000
vt 0.625000 0.000000
vt 0.625000 0.250000
vt 0.375000 0.250000
vt 0.625000 0.500000
vt 0.375000 0.500000
vt 0.625000 0.750000
vt 0.375000 0.750000
vt 0.625000 1.000000
vt 0.375000 1.000000
vt 0.125000 0.500000
vt 0.125000 0.750000
vt 0.875000 0.500000
vt 0.875000 0.750000
vn -0.2293 -0.0002 -0.9734
vn 0.9698 -0.0004 -0.2439
vn 0.1977 0.0000 0.9803
vn -0.9861 0.0001 0.1662
vn 0.0000 -1.0000 0.0000
vn 0.0000 1.0000 -0.0000
usemtl None
s off
f 613/1117/412 614/1118/412 616/1119/412 615/1120/412
f 615/1120/413 616/1119/413 620/1121/413 619/1122/413
f 619/1122/414 620/1121/414 618/1123/414 617/1124/414
f 617/1124/415 618/1123/415 614/1125/415 613/1126/415
f 615/1127/416 619/1122/416 617/1124/416 613/1128/416
f 620/1121/417 616/1129/417 614/1130/417 618/1123/417
o Cube.056_Cube.059
v -26.735266 -4.113822 -22.391296
v -26.735266 -0.837133 -22.391296
v -23.701797 -4.113822 -23.243443
v -23.701797 -0.837133 -23.243443
v -25.901699 -4.113822 -19.355175
v -25.901699 -0.837133 -19.355175
v -22.868956 -4.113822 -20.282379
v -22.868956 -0.837133 -20.282379
vt 0.375000 0.000000
vt 0.625000 0.000000
vt 0.625000 0.250000
vt 0.375000 0.250000
vt 0.625000 0.500000
vt 0.375000 0.500000
vt 0.625000 0.750000
vt 0.375000 0.750000
vt 0.625000 1.000000
vt 0.375000 1.000000
vt 0.125000 0.500000
vt 0.125000 0.750000
vt 0.875000 0.500000
vt 0.875000 0.750000
vn -0.2704 0.0000 -0.9627
vn 0.9626 0.0000 -0.2708
vn 0.2924 0.0000 0.9563
vn -0.9643 0.0000 0.2648
vn 0.0000 -1.0000 0.0000
vn 0.0000 1.0000 -0.0000
usemtl None
s off
f 621/1131/418 622/1132/418 624/1133/418 623/1134/418
f 623/1134/419 624/1133/419 628/1135/419 627/1136/419
f 627/1136/420 628/1135/420 626/1137/420 625/1138/420
f 625/1138/421 626/1137/421 622/1139/421 621/1140/421
f 623/1141/422 627/1136/422 625/1138/422 621/1142/422
f 628/1135/423 624/1143/423 622/1144/423 626/1137/423
o Cube.057_Cube.060
v -26.962048 -4.113822 -25.513290
v -26.962048 -0.190072 -25.513290
v -24.051617 -4.113822 -26.406448
v -24.051617 -0.190072 -26.406448
v -26.066963 -4.113822 -22.514080
v -26.066963 -0.190072 -22.514080
v -23.095737 -4.113822 -23.428982
v -23.095737 -0.190072 -23.428982
vt 0.375000 0.000000
vt 0.625000 0.000000
vt 0.625000 0.250000
vt 0.375000 0.250000
vt 0.625000 0.500000
vt 0.375000 0.500000
vt 0.625000 0.750000
vt 0.375000 0.750000
vt 0.625000 1.000000
vt 0.375000 1.000000
vt 0.125000 0.500000
vt 0.125000 0.750000
vt 0.875000 0.500000
vt 0.875000 0.750000
vn -0.2934 0.0000 -0.9560
vn 0.9521 0.0000 -0.3057
vn 0.2943 0.0000 0.9557
vn -0.9582 0.0000 0.2860
vn 0.0000 -1.0000 -0.0000
vn 0.0000 1.0000 -0.0000
usemtl None
s off
f 629/1145/424 630/1146/424 632/1147/424 631/1148/424
f 631/1148/425 632/1147/425 636/1149/425 635/1150/425
f 635/1150/426 636/1149/426 634/1151/426 633/1152/426
f 633/1152/427 634/1151/427 630/1153/427 629/1154/427
f 631/1155/428 635/1150/428 633/1152/428 629/1156/428
f 636/1149/429 632/1157/429 630/1158/429 634/1151/429
o Cube.058_Cube.061
v -29.729549 -2.758894 36.670189
v -28.552151 -2.456053 36.601585
v -27.213312 -2.758894 33.869656
v -27.159105 -2.456053 35.051147
v -26.946066 -2.758894 39.200989
v -27.011152 -2.456053 38.002693
v -24.478573 -2.758894 36.325169
v -25.645094 -2.456053 36.410576
vt 0.375000 0.000000
vt 0.625000 0.000000
vt 0.625000 0.250000
vt 0.375000 0.250000
vt 0.625000 0.500000
vt 0.375000 0.500000
vt 0.625000 0.750000
vt 0.375000 0.750000
vt 0.625000 1.000000
vt 0.375000 1.000000
vt 0.125000 0.500000
vt 0.125000 0.750000
vt 0.875000 0.500000
vt 0.875000 0.750000
vn -0.2550 0.9394 -0.2291
vn 0.2259 0.9411 -0.2516
vn 0.2602 0.9394 0.2233
vn -0.2275 0.9411 0.2502
vn 0.0000 -1.0000 -0.0000
vn 0.0000 1.0000 0.0000
usemtl None
s off
f 637/1159/430 638/1160/430 640/1161/430 639/1162/430
f 639/1162/431 640/1161/431 644/1163/431 643/1164/431
f 643/1164/432 644/1163/432 642/1165/432 641/1166/432
f 641/1166/433 642/1165/433 638/1167/433 637/1168/433
f 639/1169/434 643/1164/434 641/1166/434 637/1170/434
f 644/1163/435 640/1171/435 638/1172/435 642/1165/435
o Cube.059_Cube.065
v 8.458642 -4.113822 -27.542294
v 8.458642 4.000930 -27.542294
v 8.912635 -4.113822 -26.709234
v 8.912635 4.000930 -26.709234
v 10.373075 -4.113822 -26.315401
v 10.373075 4.000930 -26.315401
v 12.255720 -4.113822 -28.642422
v 12.514483 -4.113822 -28.444529
v 12.514483 4.000930 -28.444529
v 12.255720 4.000930 -28.642422
vt 0.375000 0.268552
vt 0.625000 0.268552
vt 0.625000 0.500000
vt 0.375000 0.500000
vt 0.856448 0.500000
vt 0.875000 0.519074
vt 0.875000 0.750000
vt 0.625000 0.750000
vt 0.375000 0.750000
vt 0.625000 1.000000
vt 0.375000 1.000000
vt 0.375000 0.000000
vt 0.625000 0.000000
vt 0.625000 0.230926
vt 0.375000 0.230926
vt 0.125000 0.519074
vt 0.143552 0.500000
vt 0.125000 0.750000
vn 0.7051 0.0000 0.7091
vn 0.0000 1.0000 -0.0000
vn -0.2604 0.0000 0.9655
vn -0.8781 0.0000 0.4785
vn -0.2783 0.0000 -0.9605
vn 0.6075 0.0000 -0.7943
vn 0.0000 -1.0000 -0.0000
usemtl None
s off
f 652/1173/436 653/1174/436 650/1175/436 649/1176/436
f 650/1175/437 653/1177/437 654/1178/437 646/1179/437 648/1180/437
f 649/1176/438 650/1175/438 648/1180/438 647/1181/438
f 647/1181/439 648/1180/439 646/1182/439 645/1183/439
f 645/1184/440 646/1185/440 654/1186/440 651/1187/440
f 653/1174/441 652/1173/441 651/1187/441 654/1186/441
f 651/1188/442 652/1189/442 649/1176/442 647/1181/442 645/1190/442
